<svg width="720" height="405" version="1.1" xmlns="http://www.w3.org/2000/svg" desc="Created with imagetracer.js version 1.2.6" ><path fill="rgb(239,238,237)" stroke="rgb(239,238,237)" stroke-width="1" opacity="1" d="M 338.5 74 L 346 74.5 L 338.5 75 L 338.5 74 Z " /><path fill="rgb(239,238,237)" stroke="rgb(239,238,237)" stroke-width="1" opacity="1" d="M 374.5 74 L 382 74.5 L 374.5 75 L 374.5 74 Z " /><path fill="rgb(239,238,237)" stroke="rgb(239,238,237)" stroke-width="1" opacity="1" d="M 330.5 75 L 336 75.5 L 330.5 76 L 330.5 75 Z " /><path fill="rgb(239,238,237)" stroke="rgb(239,238,237)" stroke-width="1" opacity="1" d="M 384.5 75 L 390 75.5 L 384.5 76 L 384.5 75 Z " /><path fill="rgb(239,238,237)" stroke="rgb(239,238,237)" stroke-width="1" opacity="1" d="M 325.5 76 L 329 76.5 L 325.5 77 L 325.5 76 Z " /><path fill="rgb(239,238,237)" stroke="rgb(239,238,237)" stroke-width="1" opacity="1" d="M 391.5 76 L 395 76.5 L 391.5 77 L 391.5 76 Z " /><path fill="rgb(239,238,237)" stroke="rgb(239,238,237)" stroke-width="1" opacity="1" d="M 320.5 77 L 323 77.5 L 320.5 78 L 320.5 77 Z " /><path fill="rgb(239,238,237)" stroke="rgb(239,238,237)" stroke-width="1" opacity="1" d="M 396.5 77 L 400 77.5 L 396.5 78 L 396.5 77 Z " /><path fill="rgb(239,238,237)" stroke="rgb(239,238,237)" stroke-width="1" opacity="1" d="M 315.5 78 L 319 78.5 L 312.5 80 L 312.5 79 L 315.5 78 Z " /><path fill="rgb(239,238,237)" stroke="rgb(239,238,237)" stroke-width="1" opacity="1" d="M 401.5 78 L 404 78.5 L 401.5 79 L 401.5 78 Z " /><path fill="rgb(239,238,237)" stroke="rgb(239,238,237)" stroke-width="1" opacity="1" d="M 405.5 79 L 408 79.5 L 405.5 80 L 405.5 79 Z " /><path fill="rgb(239,238,237)" stroke="rgb(239,238,237)" stroke-width="1" opacity="1" d="M 308.5 80 L 311 80.5 L 297.5 85 L 297.5 84 L 308.5 80 Z " /><path fill="rgb(239,238,237)" stroke="rgb(239,238,237)" stroke-width="1" opacity="1" d="M 412.5 81 L 420 83.5 L 418.5 84 L 412.5 82 L 412.5 81 Z " /><path fill="rgb(239,238,237)" stroke="rgb(239,238,237)" stroke-width="1" opacity="1" d="M 421.5 84 L 425 85.5 L 423.5 86 L 421.5 84 Z " /><path fill="rgb(239,238,237)" stroke="rgb(239,238,237)" stroke-width="1" opacity="1" d="M 294.5 85 L 296 85.5 L 281.5 93 L 282.5 91 L 294.5 85 Z " /><path fill="rgb(239,238,237)" stroke="rgb(239,238,237)" stroke-width="1" opacity="1" d="M 426.5 86 L 437 91.5 L 435.5 91 L 426.5 87 L 426.5 86 Z " /><path fill="rgb(239,238,237)" stroke="rgb(239,238,237)" stroke-width="1" opacity="1" d="M 438.5 92 L 442 94.5 L 440.5 94 L 438.5 92 Z " /><path fill="rgb(239,238,237)" stroke="rgb(239,238,237)" stroke-width="1" opacity="1" d="M 279.5 93 L 278.5 95 L 272.5 99 L 274.5 96 L 279.5 93 Z " /><path fill="rgb(239,238,237)" stroke="rgb(239,238,237)" stroke-width="1" opacity="1" d="M 443.5 95 L 444.5 97 L 443.5 95 Z " /><path fill="rgb(239,238,237)" stroke="rgb(239,238,237)" stroke-width="1" opacity="1" d="M 446.5 97 L 463 111.5 L 469 119.5 L 466 117.5 L 454.5 104 Q 448.4 101.3 446.5 97 Z " /><path fill="rgb(239,238,237)" stroke="rgb(239,238,237)" stroke-width="1" opacity="1" d="M 270.5 99 L 267.5 103 L 257 112.5 Q 249.6 120.6 245.5 132 L 245 130.5 Q 252.4 112.9 266.5 102 L 270.5 99 Z " /><path fill="rgb(239,238,237)" stroke="rgb(239,238,237)" stroke-width="1" opacity="1" d="M 469.5 121 Q 475.7 127.8 477 139.5 L 476 139.5 Q 474.3 127.8 469.5 121 Z " /><path fill="rgb(239,238,237)" stroke="rgb(239,238,237)" stroke-width="1" opacity="1" d="M 244.5 133 L 245 135.5 L 243.5 140 L 243 136.5 L 244.5 133 Z " /><path fill="rgb(239,238,237)" stroke="rgb(239,238,237)" stroke-width="1" opacity="1" d="M 243.5 290 L 247 298.5 L 245 297.5 L 243.5 290 Z " /><path fill="rgb(239,238,237)" stroke="rgb(239,238,237)" stroke-width="1" opacity="1" d="M 476.5 290 L 477 292.5 L 473.5 299 L 474 297.5 L 476.5 290 Z " /><path fill="rgb(239,238,237)" stroke="rgb(239,238,237)" stroke-width="1" opacity="1" d="M 247.5 300 L 248.5 302 L 247.5 300 Z " /><path fill="rgb(239,238,237)" stroke="rgb(239,238,237)" stroke-width="1" opacity="1" d="M 472.5 300 L 471.5 302 L 472.5 300 Z " /><path fill="rgb(239,238,237)" stroke="rgb(239,238,237)" stroke-width="1" opacity="1" d="M 249.5 303 L 261 313.5 L 258.5 312 L 249.5 303 Z " /><path fill="rgb(239,238,237)" stroke="rgb(239,238,237)" stroke-width="1" opacity="1" d="M 470.5 303 L 462.5 312 L 459.5 314 L 461.5 311 L 470.5 303 Z " /><path fill="rgb(239,238,237)" stroke="rgb(239,238,237)" stroke-width="1" opacity="1" d="M 262.5 314 Q 271.8 320.7 285 323.5 L 282.5 324 L 263.5 316 L 262.5 314 Z " /><path fill="rgb(239,238,237)" stroke="rgb(239,238,237)" stroke-width="1" opacity="1" d="M 457.5 314 L 456.5 316 L 452.5 318 L 453.5 316 L 457.5 314 Z " /><path fill="rgb(239,238,237)" stroke="rgb(239,238,237)" stroke-width="1" opacity="1" d="M 449.5 318 L 451 318.5 L 442.5 322 L 442.5 321 L 449.5 318 Z " /><path fill="rgb(239,238,237)" stroke="rgb(239,238,237)" stroke-width="1" opacity="1" d="M 438.5 322 L 441 322.5 L 435.5 324 L 435.5 323 L 438.5 322 Z " /><path fill="rgb(239,238,237)" stroke="rgb(239,238,237)" stroke-width="1" opacity="1" d="M 286.5 324 L 289 324.5 L 286.5 325 L 286.5 324 Z " /><path fill="rgb(239,238,237)" stroke="rgb(239,238,237)" stroke-width="1" opacity="1" d="M 431.5 324 L 434 324.5 L 431.5 325 L 431.5 324 Z " /><path fill="rgb(239,238,237)" stroke="rgb(239,238,237)" stroke-width="1" opacity="1" d="M 290.5 325 L 294 325.5 L 290.5 326 L 290.5 325 Z " /><path fill="rgb(239,238,237)" stroke="rgb(239,238,237)" stroke-width="1" opacity="1" d="M 426.5 325 L 430 325.5 L 426.5 326 L 426.5 325 Z " /><path fill="rgb(239,238,237)" stroke="rgb(239,238,237)" stroke-width="1" opacity="1" d="M 296.5 326 L 300 326.5 L 296.5 327 L 296.5 326 Z " /><path fill="rgb(239,238,237)" stroke="rgb(239,238,237)" stroke-width="1" opacity="1" d="M 420.5 326 L 425 326.5 L 420.5 327 L 420.5 326 Z " /><path fill="rgb(239,238,237)" stroke="rgb(239,238,237)" stroke-width="1" opacity="1" d="M 302.5 327 L 308 327.5 L 302.5 328 L 302.5 327 Z " /><path fill="rgb(239,238,237)" stroke="rgb(239,238,237)" stroke-width="1" opacity="1" d="M 412.5 327 L 418 327.5 L 412.5 328 L 412.5 327 Z " /><path fill="rgb(239,238,237)" stroke="rgb(239,238,237)" stroke-width="1" opacity="1" d="M 310.5 328 L 318 328.5 L 310.5 329 L 310.5 328 Z " /><path fill="rgb(239,238,237)" stroke="rgb(239,238,237)" stroke-width="1" opacity="1" d="M 402.5 328 L 410 328.5 L 402.5 329 L 402.5 328 Z " /><path fill="rgb(239,238,237)" stroke="rgb(239,238,237)" stroke-width="1" opacity="1" d="M 321.5 329 L 334 329.5 L 321.5 330 L 321.5 329 Z " /><path fill="rgb(239,238,237)" stroke="rgb(239,238,237)" stroke-width="1" opacity="1" d="M 386.5 329 L 399 329.5 L 386.5 330 L 386.5 329 Z " /><path fill="rgb(239,238,237)" stroke="rgb(239,238,237)" stroke-width="1" opacity="1" d="M 262.5 352 Q 263.8 354.2 268.5 353 L 270 352.5 L 268.5 354 Q 263.8 352.8 262.5 355 L 262.5 352 Z " /><path fill="rgb(239,238,237)" stroke="rgb(239,238,237)" stroke-width="1" opacity="1" d="M 275.5 352 L 278.5 353 L 280.5 353 L 282.5 352 L 282.5 355 Q 281.2 352.8 276.5 354 L 275.5 352 Z " /><path fill="rgb(239,238,237)" stroke="rgb(239,238,237)" stroke-width="1" opacity="1" d="M 287.5 352 Q 288.7 354.2 293.5 353 L 295.5 353 L 298 353.5 L 284.5 354 L 284.5 353 L 287.5 352 Z " /><path fill="rgb(239,238,237)" stroke="rgb(239,238,237)" stroke-width="1" opacity="1" d="M 314.5 352 L 315.5 354 L 300.5 354 L 300 358 Q 303.8 357 305 359.5 L 304.5 374 L 304 359 Q 300.2 360 299 357.5 Q 298.3 353.8 300.5 353 L 313.5 353 L 314.5 352 Z " /><path fill="rgb(239,238,237)" stroke="rgb(239,238,237)" stroke-width="1" opacity="1" d="M 322.5 352 L 323.5 354 L 322.5 352 Z " /><path fill="rgb(239,238,237)" stroke="rgb(239,238,237)" stroke-width="1" opacity="1" d="M 328.5 352 L 329.5 354 Q 326.7 354.7 328.5 352 Z " /><path fill="rgb(239,238,237)" stroke="rgb(239,238,237)" stroke-width="1" opacity="1" d="M 340.5 352 L 341.5 353 L 350 353.5 L 339 354 L 339 373.5 L 341 375.5 L 338 373.5 L 338 354.5 L 340.5 352 Z " /><path fill="rgb(239,238,237)" stroke="rgb(239,238,237)" stroke-width="1" opacity="1" d="M 354.5 352 L 354.5 355 Q 351.5 353.5 354.5 352 Z " /><path fill="rgb(239,238,237)" stroke="rgb(239,238,237)" stroke-width="1" opacity="1" d="M 357.5 352 L 358.5 353 L 370.5 353 L 372 354.5 L 370.5 354 L 357.5 354 L 357.5 352 Z " /><path fill="rgb(239,238,237)" stroke="rgb(239,238,237)" stroke-width="1" opacity="1" d="M 401.5 352 L 400.5 354 L 401.5 352 Z " /><path fill="rgb(239,238,237)" stroke="rgb(239,238,237)" stroke-width="1" opacity="1" d="M 437.5 352 L 438.5 354 L 437.5 352 Z " /><path fill="rgb(239,238,237)" stroke="rgb(239,238,237)" stroke-width="1" opacity="1" d="M 319.5 353 L 321 354.5 L 317.5 358 L 316.5 356 Q 318.3 358.8 320 354.5 L 319.5 353 Z " /><path fill="rgb(239,238,237)" stroke="rgb(239,238,237)" stroke-width="1" opacity="1" d="M 423.5 353 L 432 353.5 L 423.5 354 L 423.5 353 Z " /><path fill="rgb(239,238,237)" stroke="rgb(239,238,237)" stroke-width="1" opacity="1" d="M 443.5 353 L 444.5 355 L 443.5 353 Z " /><path fill="rgb(239,238,237)" stroke="rgb(239,238,237)" stroke-width="1" opacity="1" d="M 434.5 354 L 438 355.5 L 435.5 356 L 434.5 354 Z " /><path fill="rgb(239,238,237)" stroke="rgb(239,238,237)" stroke-width="1" opacity="1" d="M 415.5 355 L 416.5 357 L 415.5 355 Z " /><path fill="rgb(239,238,237)" stroke="rgb(239,238,237)" stroke-width="1" opacity="1" d="M 263.5 356 L 262.5 358 L 263.5 356 Z " /><path fill="rgb(239,238,237)" stroke="rgb(239,238,237)" stroke-width="1" opacity="1" d="M 387.5 356 L 386.5 358 L 387.5 356 Z " /><path fill="rgb(239,238,237)" stroke="rgb(239,238,237)" stroke-width="1" opacity="1" d="M 418.5 356 L 420 358.5 L 417 358.5 L 418.5 356 Z " /><path fill="rgb(239,238,237)" stroke="rgb(239,238,237)" stroke-width="1" opacity="1" d="M 354.5 357 L 357 358.5 L 355 359 L 354.5 361 L 354.5 357 Z " /><path fill="rgb(239,238,237)" stroke="rgb(239,238,237)" stroke-width="1" opacity="1" d="M 440.5 357 L 439.5 359 L 440.5 357 Z " /><path fill="rgb(239,238,237)" stroke="rgb(239,238,237)" stroke-width="1" opacity="1" d="M 290.5 358 L 298 358.5 L 290.5 359 L 290.5 358 Z " /><path fill="rgb(239,238,237)" stroke="rgb(239,238,237)" stroke-width="1" opacity="1" d="M 311.5 358 Q 316 357 317 359.5 L 315.5 359 Q 311 358.5 311 359.5 L 311 373.5 L 310 373.5 L 310 359.5 L 311.5 358 Z " /><path fill="rgb(239,238,237)" stroke="rgb(239,238,237)" stroke-width="1" opacity="1" d="M 324.5 358 L 323.5 360 L 324.5 358 Z " /><path fill="rgb(239,238,237)" stroke="rgb(239,238,237)" stroke-width="1" opacity="1" d="M 327.5 358 L 328.5 360 L 327.5 358 Z " /><path fill="rgb(239,238,237)" stroke="rgb(239,238,237)" stroke-width="1" opacity="1" d="M 344.5 358 L 345 361.5 L 344 361.5 L 344.5 358 Z " /><path fill="rgb(239,238,237)" stroke="rgb(239,238,237)" stroke-width="1" opacity="1" d="M 347.5 358 L 349 360.5 L 348 360.5 L 347.5 358 Z " /><path fill="rgb(239,238,237)" stroke="rgb(239,238,237)" stroke-width="1" opacity="1" d="M 363.5 358 L 371 358.5 L 363.5 359 L 363.5 358 Z " /><path fill="rgb(239,238,237)" stroke="rgb(239,238,237)" stroke-width="1" opacity="1" d="M 379.5 358 L 381 360.5 L 379 359.5 L 379.5 358 Z " /><path fill="rgb(239,238,237)" stroke="rgb(239,238,237)" stroke-width="1" opacity="1" d="M 274.5 359 L 275 361 L 273 360.5 L 274.5 359 Z " /><path fill="rgb(239,238,237)" stroke="rgb(239,238,237)" stroke-width="1" opacity="1" d="M 388.5 359 L 387.5 361 L 388.5 359 Z " /><path fill="rgb(239,238,237)" stroke="rgb(239,238,237)" stroke-width="1" opacity="1" d="M 446.5 359 L 445.5 361 L 446.5 359 Z " /><path fill="rgb(239,238,237)" stroke="rgb(239,238,237)" stroke-width="1" opacity="1" d="M 437.5 360 L 439 362.5 L 438 362.5 L 437.5 360 Z " /><path fill="rgb(239,238,237)" stroke="rgb(239,238,237)" stroke-width="1" opacity="1" d="M 450.5 360 L 449.5 362 L 450.5 360 Z " /><path fill="rgb(239,238,237)" stroke="rgb(239,238,237)" stroke-width="1" opacity="1" d="M 329.5 361 L 328.5 363 L 329.5 361 Z " /><path fill="rgb(239,238,237)" stroke="rgb(239,238,237)" stroke-width="1" opacity="1" d="M 389.5 361 L 391 363.5 L 389 362.5 L 389.5 361 Z " /><path fill="rgb(239,238,237)" stroke="rgb(239,238,237)" stroke-width="1" opacity="1" d="M 418.5 361 L 419 366.5 L 418 366.5 L 418.5 361 Z " /><path fill="rgb(239,238,237)" stroke="rgb(239,238,237)" stroke-width="1" opacity="1" d="M 371.5 362 L 372.5 364 L 371.5 362 Z " /><path fill="rgb(239,238,237)" stroke="rgb(239,238,237)" stroke-width="1" opacity="1" d="M 404.5 362 L 405 365.5 L 404 365.5 L 404.5 362 Z " /><path fill="rgb(239,238,237)" stroke="rgb(239,238,237)" stroke-width="1" opacity="1" d="M 436.5 362 L 437 364 L 435 363.5 L 436.5 362 Z " /><path fill="rgb(239,238,237)" stroke="rgb(239,238,237)" stroke-width="1" opacity="1" d="M 374.5 363 L 375.5 365 L 374.5 363 Z " /><path fill="rgb(239,238,237)" stroke="rgb(239,238,237)" stroke-width="1" opacity="1" d="M 351.5 364 L 354 365 L 353.5 367 L 351.5 364 Z " /><path fill="rgb(239,238,237)" stroke="rgb(239,238,237)" stroke-width="1" opacity="1" d="M 388.5 364 L 387.5 366 L 388.5 364 Z " /><path fill="rgb(239,238,237)" stroke="rgb(239,238,237)" stroke-width="1" opacity="1" d="M 449.5 366 L 452 367.5 L 450.5 370 L 448 369.5 L 451 369 Q 452.1 366.3 449.5 367 L 449.5 366 Z " /><path fill="rgb(239,238,237)" stroke="rgb(239,238,237)" stroke-width="1" opacity="1" d="M 344.5 367 L 345 373.5 L 344 373.5 L 344.5 367 Z " /><path fill="rgb(239,238,237)" stroke="rgb(239,238,237)" stroke-width="1" opacity="1" d="M 381.5 367 L 382 368.5 Q 381.3 370.8 377.5 370 L 377.5 369 L 379.5 368 L 381 368.5 L 381.5 367 Z " /><path fill="rgb(239,238,237)" stroke="rgb(239,238,237)" stroke-width="1" opacity="1" d="M 445.5 367 L 446.5 369 L 445.5 367 Z " /><path fill="rgb(239,238,237)" stroke="rgb(239,238,237)" stroke-width="1" opacity="1" d="M 328.5 368 L 327.5 370 L 328.5 368 Z " /><path fill="rgb(239,238,237)" stroke="rgb(239,238,237)" stroke-width="1" opacity="1" d="M 335.5 368 L 336 369.5 L 335.5 372 Q 333.7 369.2 332 373.5 L 332.5 375 L 330.5 374 L 330.5 376 L 327.5 375 L 323 374.5 L 327.5 374 Q 329 376.5 330.5 373 L 335 369.5 L 335.5 368 Z " /><path fill="rgb(239,238,237)" stroke="rgb(239,238,237)" stroke-width="1" opacity="1" d="M 391.5 368 L 389.5 371 L 391.5 368 Z " /><path fill="rgb(239,238,237)" stroke="rgb(239,238,237)" stroke-width="1" opacity="1" d="M 395.5 368 L 396.5 370 L 395.5 368 Z " /><path fill="rgb(239,238,237)" stroke="rgb(239,238,237)" stroke-width="1" opacity="1" d="M 436.5 369 L 438.5 370 L 440 369.5 Q 438.7 372.3 437.5 370 L 436.5 369 Z " /><path fill="rgb(239,238,237)" stroke="rgb(239,238,237)" stroke-width="1" opacity="1" d="M 317.5 370 L 319.5 373 Q 317.8 369.9 316 371.5 L 317.5 370 Z " /><path fill="rgb(239,238,237)" stroke="rgb(239,238,237)" stroke-width="1" opacity="1" d="M 457.5 372 L 456.5 374 L 457.5 372 Z " /><path fill="rgb(239,238,237)" stroke="rgb(239,238,237)" stroke-width="1" opacity="1" d="M 298.5 373 L 297.5 375 L 298.5 373 Z " /><path fill="rgb(239,238,237)" stroke="rgb(239,238,237)" stroke-width="1" opacity="1" d="M 371.5 373 L 374 373.5 L 372.5 375 L 370 374.5 L 371.5 373 Z " /><path fill="rgb(239,238,237)" stroke="rgb(239,238,237)" stroke-width="1" opacity="1" d="M 384.5 373 L 383.5 375 L 384.5 373 Z " /><path fill="rgb(239,238,237)" stroke="rgb(239,238,237)" stroke-width="1" opacity="1" d="M 376.5 374 L 382 374.5 L 379.5 376 L 376.5 375 L 376.5 374 Z " /><path fill="rgb(239,238,237)" stroke="rgb(239,238,237)" stroke-width="1" opacity="1" d="M 392.5 374 L 396 374.5 L 393.5 376 L 392.5 374 Z " /><path fill="rgb(239,238,237)" stroke="rgb(239,238,237)" stroke-width="1" opacity="1" d="M 406.5 374 L 411 374.5 L 406.5 375 L 406.5 374 Z " /><path fill="rgb(239,238,237)" stroke="rgb(239,238,237)" stroke-width="1" opacity="1" d="M 448.5 374 L 451 374.5 L 448.5 375 L 448.5 374 Z " /><path fill="rgb(240,240,240)" stroke="rgb(240,240,240)" stroke-width="1" opacity="1" d="M 0 0 L 720 0 L 720 405 L 0 405 L 0 0 Z M 339 74 L 316 78 L 300 83 Q 281 90 267 102 Q 250 115 243 137 L 243 293 L 249 304 Q 258 315 274 321 L 291 326 L 310 328 L 311 329 L 321 329 L 322 330 L 399 330 L 400 329 L 418 328 L 419 327 L 430 326 L 447 321 L 463 312 Q 472 305 477 293 L 477 137 Q 472 122 463 112 Q 444 91 415 81 L 382 74 L 339 74 Z M 280 352 L 276 353 L 275 359 Q 271 360 274 362 L 273 366 L 269 353 Q 264 351 262 355 L 270 375 Q 271 373 276 374 L 283 355 L 280 352 Z M 288 352 L 287 353 L 284 353 L 284 359 L 284 361 L 284 373 L 283 374 L 297 374 L 298 375 Q 300 374 298 373 L 298 369 L 291 369 L 290 368 Q 292 365 297 366 L 297 361 L 290 361 L 291 359 L 298 359 L 298 353 L 296 353 L 294 353 Q 289 354 288 352 Z M 315 352 L 314 353 L 301 353 L 299 355 Q 298 358 301 359 L 304 360 L 304 374 L 311 374 L 311 359 L 316 359 L 317 357 L 315 352 Z M 329 352 L 321 354 L 316 360 Q 315 367 317 371 L 324 375 L 328 375 L 330 375 L 336 370 Q 338 361 335 358 L 329 352 Z M 341 352 L 338 355 L 338 374 Q 339 376 341 374 L 345 374 L 345 368 L 347 367 L 350 375 L 352 374 L 355 375 Q 356 369 353 368 L 354 365 L 352 365 L 355 359 L 357 360 L 357 374 L 370 374 L 371 375 Q 373 374 371 373 L 371 369 L 364 369 L 363 368 Q 364 365 370 366 Q 372 365 370 364 L 370 361 L 363 361 L 364 359 L 371 359 L 372 355 L 371 353 L 359 353 L 358 352 L 357 358 L 350 353 L 342 353 L 341 352 Z M 379 353 L 373 358 L 374 364 L 380 367 Q 382 366 381 369 L 379 369 L 375 368 L 373 374 L 380 376 L 382 375 L 384 375 L 387 373 Q 389 371 388 366 L 382 361 L 380 358 L 384 359 Q 388 360 388 357 L 387 354 Q 385 352 379 353 Z M 404 353 L 398 362 L 399 370 L 407 375 L 414 374 L 419 367 Q 420 360 417 357 Q 414 352 406 353 L 404 353 Z M 422 353 L 420 357 L 421 358 L 421 374 L 426 375 L 427 375 L 427 367 L 429 367 L 431 372 L 430 374 L 438 374 L 437 372 L 438 370 L 436 369 Q 437 366 434 365 L 437 364 L 438 361 L 436 356 Q 432 352 424 353 L 422 353 Z M 448 353 L 443 355 L 438 362 L 439 370 Q 442 374 449 375 L 457 374 Q 459 373 457 372 L 457 364 L 458 363 L 451 362 L 449 362 Q 447 368 451 367 Q 452 370 448 369 Q 444 368 445 362 L 450 358 Q 453 357 452 360 L 454 359 L 456 359 L 456 354 Q 454 352 448 353 Z M 392 368 L 389 371 L 390 374 L 394 376 L 396 375 L 397 370 Q 396 367 392 368 Z " /><path fill="rgb(240,240,240)" stroke="rgb(240,240,240)" stroke-width="1" opacity="1" d="M 325.5 358 L 329 360.5 L 330 365.5 L 326.5 370 L 323 367.5 L 322 362.5 L 325.5 358 Z " /><path fill="rgb(240,240,240)" stroke="rgb(240,240,240)" stroke-width="1" opacity="1" d="M 345 358 L 348 359.5 Q 349.1 363.7 345 362 L 345 358 Z " /><path fill="rgb(240,240,240)" stroke="rgb(240,240,240)" stroke-width="1" opacity="1" d="M 407.5 358 L 411 359.5 L 412 366.5 L 411 369 L 407.5 370 Q 403.3 368.3 405 360.5 L 407.5 358 Z " /><path fill="rgb(240,240,240)" stroke="rgb(240,240,240)" stroke-width="1" opacity="1" d="M 427 358 L 431 359.5 L 429.5 362 Q 424.9 363.2 427 358 Z " /><path fill="rgb(243,230,216)" stroke="rgb(243,230,216)" stroke-width="1" opacity="1" d="M 344.5 85 L 352 85.5 L 344.5 86 L 344.5 85 Z " /><path fill="rgb(243,230,216)" stroke="rgb(243,230,216)" stroke-width="1" opacity="1" d="M 368.5 85 L 376 85.5 L 368.5 86 L 368.5 85 Z " /><path fill="rgb(243,230,216)" stroke="rgb(243,230,216)" stroke-width="1" opacity="1" d="M 335.5 86 L 339 86.5 L 335.5 87 L 335.5 86 Z " /><path fill="rgb(243,230,216)" stroke="rgb(243,230,216)" stroke-width="1" opacity="1" d="M 381.5 86 L 385 86.5 L 381.5 87 L 381.5 86 Z " /><path fill="rgb(243,230,216)" stroke="rgb(243,230,216)" stroke-width="1" opacity="1" d="M 328.5 87 L 332 87.5 L 328.5 88 L 328.5 87 Z " /><path fill="rgb(243,230,216)" stroke="rgb(243,230,216)" stroke-width="1" opacity="1" d="M 388.5 87 L 391 87.5 L 388.5 88 L 388.5 87 Z " /><path fill="rgb(243,230,216)" stroke="rgb(243,230,216)" stroke-width="1" opacity="1" d="M 323.5 88 L 326 88.5 L 323.5 89 L 323.5 88 Z " /><path fill="rgb(243,230,216)" stroke="rgb(243,230,216)" stroke-width="1" opacity="1" d="M 431.5 101 L 432.5 103 L 431.5 101 Z " /><path fill="rgb(243,230,216)" stroke="rgb(243,230,216)" stroke-width="1" opacity="1" d="M 286.5 102 L 285.5 104 L 286.5 102 Z " /><path fill="rgb(243,230,216)" stroke="rgb(243,230,216)" stroke-width="1" opacity="1" d="M 436.5 104 L 437.5 106 L 436.5 104 Z " /><path fill="rgb(243,230,216)" stroke="rgb(243,230,216)" stroke-width="1" opacity="1" d="M 280.5 106 L 279.5 108 L 280.5 106 Z " /><path fill="rgb(243,230,216)" stroke="rgb(243,230,216)" stroke-width="1" opacity="1" d="M 439.5 106 L 440.5 108 L 439.5 106 Z " /><path fill="rgb(243,230,216)" stroke="rgb(243,230,216)" stroke-width="1" opacity="1" d="M 277.5 108 L 275.5 111 L 277.5 108 Z " /><path fill="rgb(243,230,216)" stroke="rgb(243,230,216)" stroke-width="1" opacity="1" d="M 443.5 109 L 445.5 112 L 443.5 109 Z " /><path fill="rgb(243,230,216)" stroke="rgb(243,230,216)" stroke-width="1" opacity="1" d="M 271.5 113 L 266.5 119 L 271.5 113 Z " /><path fill="rgb(243,230,216)" stroke="rgb(243,230,216)" stroke-width="1" opacity="1" d="M 264.5 121 L 262.5 124 L 264.5 121 Z " /><path fill="rgb(243,230,216)" stroke="rgb(243,230,216)" stroke-width="1" opacity="1" d="M 455.5 121 L 456.5 123 L 455.5 121 Z " /><path fill="rgb(243,230,216)" stroke="rgb(243,230,216)" stroke-width="1" opacity="1" d="M 261.5 125 L 260.5 127 L 261.5 125 Z " /><path fill="rgb(243,230,216)" stroke="rgb(243,230,216)" stroke-width="1" opacity="1" d="M 458.5 125 L 459.5 127 L 458.5 125 Z " /><path fill="rgb(243,230,216)" stroke="rgb(243,230,216)" stroke-width="1" opacity="1" d="M 254.5 140 L 255 142.5 L 254 142.5 L 254.5 140 Z " /><path fill="rgb(243,230,216)" stroke="rgb(243,230,216)" stroke-width="1" opacity="1" d="M 465.5 140 L 466 142.5 L 465 142.5 L 465.5 140 Z " /><path fill="rgb(243,230,216)" stroke="rgb(243,230,216)" stroke-width="1" opacity="1" d="M 257.5 151 L 260 151.5 L 257.5 152 L 257.5 151 Z " /><path fill="rgb(243,230,216)" stroke="rgb(243,230,216)" stroke-width="1" opacity="1" d="M 460.5 151 L 463 151.5 L 460.5 152 L 460.5 151 Z " /><path fill="rgb(243,230,216)" stroke="rgb(243,230,216)" stroke-width="1" opacity="1" d="M 261.5 158 L 273 158.5 L 261.5 159 L 261.5 158 Z " /><path fill="rgb(243,230,216)" stroke="rgb(243,230,216)" stroke-width="1" opacity="1" d="M 295.5 158 L 298 158.5 L 295.5 159 L 295.5 158 Z " /><path fill="rgb(243,230,216)" stroke="rgb(243,230,216)" stroke-width="1" opacity="1" d="M 315.5 158 L 318 158.5 L 315.5 159 L 315.5 158 Z " /><path fill="rgb(243,230,216)" stroke="rgb(243,230,216)" stroke-width="1" opacity="1" d="M 334.5 158 L 345 158.5 L 334.5 159 L 334.5 158 Z " /><path fill="rgb(243,230,216)" stroke="rgb(243,230,216)" stroke-width="1" opacity="1" d="M 408.5 158 L 424 158.5 L 408.5 159 L 408.5 158 Z " /><path fill="rgb(243,230,216)" stroke="rgb(243,230,216)" stroke-width="1" opacity="1" d="M 439.5 158 L 450 158.5 L 439.5 159 L 439.5 158 Z " /><path fill="rgb(243,230,216)" stroke="rgb(243,230,216)" stroke-width="1" opacity="1" d="M 292.5 159 L 290.5 162 L 292.5 159 Z " /><path fill="rgb(243,230,216)" stroke="rgb(243,230,216)" stroke-width="1" opacity="1" d="M 300.5 159 L 302.5 162 L 300.5 159 Z " /><path fill="rgb(243,230,216)" stroke="rgb(243,230,216)" stroke-width="1" opacity="1" d="M 312.5 159 L 310.5 162 L 312.5 159 Z " /><path fill="rgb(243,230,216)" stroke="rgb(243,230,216)" stroke-width="1" opacity="1" d="M 320.5 159 L 322.5 162 L 320.5 159 Z " /><path fill="rgb(243,230,216)" stroke="rgb(243,230,216)" stroke-width="1" opacity="1" d="M 256.5 160 L 255.5 162 L 256.5 160 Z " /><path fill="rgb(243,230,216)" stroke="rgb(243,230,216)" stroke-width="1" opacity="1" d="M 329.5 160 L 328.5 162 L 329.5 160 Z " /><path fill="rgb(243,230,216)" stroke="rgb(243,230,216)" stroke-width="1" opacity="1" d="M 434.5 160 L 433.5 162 L 434.5 160 Z " /><path fill="rgb(243,230,216)" stroke="rgb(243,230,216)" stroke-width="1" opacity="1" d="M 394.5 161 L 396.5 164 L 394.5 161 Z " /><path fill="rgb(243,230,216)" stroke="rgb(243,230,216)" stroke-width="1" opacity="1" d="M 458.5 161 L 461.5 165 L 458.5 161 Z " /><path fill="rgb(243,230,216)" stroke="rgb(243,230,216)" stroke-width="1" opacity="1" d="M 368.5 162 L 365.5 166 L 368.5 162 Z " /><path fill="rgb(243,230,216)" stroke="rgb(243,230,216)" stroke-width="1" opacity="1" d="M 282.5 163 L 283.5 165 L 282.5 163 Z " /><path fill="rgb(243,230,216)" stroke="rgb(243,230,216)" stroke-width="1" opacity="1" d="M 356.5 164 L 357.5 166 L 356.5 164 Z " /><path fill="rgb(243,230,216)" stroke="rgb(243,230,216)" stroke-width="1" opacity="1" d="M 344.5 171 L 345.5 173 L 344.5 171 Z " /><path fill="rgb(243,230,216)" stroke="rgb(243,230,216)" stroke-width="1" opacity="1" d="M 359.5 171 L 360 173.5 L 359 173.5 L 359.5 171 Z " /><path fill="rgb(243,230,216)" stroke="rgb(243,230,216)" stroke-width="1" opacity="1" d="M 449.5 171 L 450.5 173 L 449.5 171 Z " /><path fill="rgb(243,230,216)" stroke="rgb(243,230,216)" stroke-width="1" opacity="1" d="M 416.5 172 L 424 172.5 L 416 173 L 415.5 175 L 415 173.5 L 416.5 172 Z " /><path fill="rgb(243,230,216)" stroke="rgb(243,230,216)" stroke-width="1" opacity="1" d="M 378.5 173 L 377.5 175 L 378.5 173 Z " /><path fill="rgb(243,230,216)" stroke="rgb(243,230,216)" stroke-width="1" opacity="1" d="M 341.5 177 L 344 177.5 L 341.5 178 L 341.5 177 Z " /><path fill="rgb(243,230,216)" stroke="rgb(243,230,216)" stroke-width="1" opacity="1" d="M 446.5 177 L 449 177.5 L 446.5 178 L 446.5 177 Z " /><path fill="rgb(243,230,216)" stroke="rgb(243,230,216)" stroke-width="1" opacity="1" d="M 395.5 178 L 397.5 181 L 395.5 178 Z " /><path fill="rgb(243,230,216)" stroke="rgb(243,230,216)" stroke-width="1" opacity="1" d="M 360.5 179 L 361 184.5 L 360 184.5 L 360.5 179 Z " /><path fill="rgb(243,230,216)" stroke="rgb(243,230,216)" stroke-width="1" opacity="1" d="M 427.5 179 L 428 182.5 L 427 182.5 L 427.5 179 Z " /><path fill="rgb(243,230,216)" stroke="rgb(243,230,216)" stroke-width="1" opacity="1" d="M 377.5 181 L 378 183.5 L 377 183.5 L 377.5 181 Z " /><path fill="rgb(243,230,216)" stroke="rgb(243,230,216)" stroke-width="1" opacity="1" d="M 378.5 186 L 379.5 188 L 378.5 186 Z " /><path fill="rgb(243,230,216)" stroke="rgb(243,230,216)" stroke-width="1" opacity="1" d="M 399.5 186 L 400 188.5 L 399 188.5 L 399.5 186 Z " /><path fill="rgb(243,230,216)" stroke="rgb(243,230,216)" stroke-width="1" opacity="1" d="M 416.5 187 L 422 187.5 L 416 188 L 416.5 190 L 423.5 190 L 423.5 191 Q 416.8 192.8 415 189.5 L 416.5 187 Z " /><path fill="rgb(243,230,216)" stroke="rgb(243,230,216)" stroke-width="1" opacity="1" d="M 341 189 L 343 189.5 L 342 190.5 L 341.5 199 L 341 189 Z " /><path fill="rgb(243,230,216)" stroke="rgb(243,230,216)" stroke-width="1" opacity="1" d="M 446 189 L 448 189.5 L 446.5 198 L 446 189 Z " /><path fill="rgb(243,230,216)" stroke="rgb(243,230,216)" stroke-width="1" opacity="1" d="M 462.5 190 L 463.5 192 L 462.5 190 Z " /><path fill="rgb(243,230,216)" stroke="rgb(243,230,216)" stroke-width="1" opacity="1" d="M 272.5 191 L 271.5 193 L 272.5 191 Z " /><path fill="rgb(243,230,216)" stroke="rgb(243,230,216)" stroke-width="1" opacity="1" d="M 365.5 197 L 367.5 200 L 365.5 197 Z " /><path fill="rgb(243,230,216)" stroke="rgb(243,230,216)" stroke-width="1" opacity="1" d="M 284.5 198 L 281.5 202 L 284.5 198 Z " /><path fill="rgb(243,230,216)" stroke="rgb(243,230,216)" stroke-width="1" opacity="1" d="M 255.5 201 L 256.5 203 L 255.5 201 Z " /><path fill="rgb(243,230,216)" stroke="rgb(243,230,216)" stroke-width="1" opacity="1" d="M 452.5 201 L 453.5 203 L 452.5 201 Z " /><path fill="rgb(243,230,216)" stroke="rgb(243,230,216)" stroke-width="1" opacity="1" d="M 339.5 202 L 338.5 204 L 339.5 202 Z " /><path fill="rgb(243,230,216)" stroke="rgb(243,230,216)" stroke-width="1" opacity="1" d="M 303.5 204 L 310 204.5 L 303.5 205 L 303.5 204 Z " /><path fill="rgb(243,230,216)" stroke="rgb(243,230,216)" stroke-width="1" opacity="1" d="M 332.5 204 L 336 204.5 L 332.5 205 L 332.5 204 Z " /><path fill="rgb(243,230,216)" stroke="rgb(243,230,216)" stroke-width="1" opacity="1" d="M 352.5 204 L 356 204.5 L 352.5 205 L 352.5 204 Z " /><path fill="rgb(243,230,216)" stroke="rgb(243,230,216)" stroke-width="1" opacity="1" d="M 377.5 204 L 380 204.5 L 377.5 205 L 377.5 204 Z " /><path fill="rgb(243,230,216)" stroke="rgb(243,230,216)" stroke-width="1" opacity="1" d="M 383.5 204 L 386 204.5 L 383.5 205 L 383.5 204 Z " /><path fill="rgb(243,230,216)" stroke="rgb(243,230,216)" stroke-width="1" opacity="1" d="M 437.5 204 L 441 204.5 L 437.5 205 L 437.5 204 Z " /><path fill="rgb(243,230,216)" stroke="rgb(243,230,216)" stroke-width="1" opacity="1" d="M 457.5 204 L 461 204.5 L 457.5 205 L 457.5 204 Z " /><path fill="rgb(243,230,216)" stroke="rgb(243,230,216)" stroke-width="1" opacity="1" d="M 263.5 207 L 269 207.5 L 263.5 208 L 263.5 207 Z " /><path fill="rgb(243,230,216)" stroke="rgb(243,230,216)" stroke-width="1" opacity="1" d="M 296.5 207 L 301 207.5 L 296.5 208 L 296.5 207 Z " /><path fill="rgb(243,230,216)" stroke="rgb(243,230,216)" stroke-width="1" opacity="1" d="M 325.5 207 L 331 207.5 L 325.5 208 L 325.5 207 Z " /><path fill="rgb(243,230,216)" stroke="rgb(243,230,216)" stroke-width="1" opacity="1" d="M 355.5 207 L 362 207.5 L 355.5 208 L 355.5 207 Z " /><path fill="rgb(243,230,216)" stroke="rgb(243,230,216)" stroke-width="1" opacity="1" d="M 390.5 207 L 396 207.5 L 390.5 208 L 390.5 207 Z " /><path fill="rgb(243,230,216)" stroke="rgb(243,230,216)" stroke-width="1" opacity="1" d="M 435.5 207 L 446 207.5 L 435.5 208 L 435.5 207 Z " /><path fill="rgb(243,230,216)" stroke="rgb(243,230,216)" stroke-width="1" opacity="1" d="M 305.5 209 L 307.5 212 L 305.5 209 Z " /><path fill="rgb(243,230,216)" stroke="rgb(243,230,216)" stroke-width="1" opacity="1" d="M 320.5 209 L 318.5 212 L 320.5 209 Z " /><path fill="rgb(243,230,216)" stroke="rgb(243,230,216)" stroke-width="1" opacity="1" d="M 351.5 209 L 349.5 212 L 351.5 209 Z " /><path fill="rgb(243,230,216)" stroke="rgb(243,230,216)" stroke-width="1" opacity="1" d="M 365.5 209 L 368.5 213 L 365.5 209 Z " /><path fill="rgb(243,230,216)" stroke="rgb(243,230,216)" stroke-width="1" opacity="1" d="M 401.5 211 L 402.5 213 L 401.5 211 Z " /><path fill="rgb(243,230,216)" stroke="rgb(243,230,216)" stroke-width="1" opacity="1" d="M 421.5 212 L 420.5 214 L 421.5 212 Z " /><path fill="rgb(243,230,216)" stroke="rgb(243,230,216)" stroke-width="1" opacity="1" d="M 381.5 217 L 382 234.5 L 381 234.5 L 381.5 217 Z " /><path fill="rgb(243,230,216)" stroke="rgb(243,230,216)" stroke-width="1" opacity="1" d="M 277.5 218 L 278.5 227 L 281 225.5 Q 279 230 277 226.5 L 277.5 218 Z " /><path fill="rgb(243,230,216)" stroke="rgb(243,230,216)" stroke-width="1" opacity="1" d="M 463.5 219 L 464 222.5 L 463 222.5 L 463.5 219 Z " /><path fill="rgb(243,230,216)" stroke="rgb(243,230,216)" stroke-width="1" opacity="1" d="M 315.5 220 L 316 261.5 L 315 261.5 L 315.5 220 Z " /><path fill="rgb(243,230,216)" stroke="rgb(243,230,216)" stroke-width="1" opacity="1" d="M 461.5 226 L 459.5 229 L 461.5 226 Z " /><path fill="rgb(243,230,216)" stroke="rgb(243,230,216)" stroke-width="1" opacity="1" d="M 305.5 229 L 303.5 232 L 305.5 229 Z " /><path fill="rgb(243,230,216)" stroke="rgb(243,230,216)" stroke-width="1" opacity="1" d="M 442.5 233 L 452 233.5 L 442.5 234 L 442.5 233 Z " /><path fill="rgb(243,230,216)" stroke="rgb(243,230,216)" stroke-width="1" opacity="1" d="M 408.5 234 L 409 237.5 L 408 237.5 L 408.5 234 Z " /><path fill="rgb(243,230,216)" stroke="rgb(243,230,216)" stroke-width="1" opacity="1" d="M 429.5 238 L 430 243.5 L 429 243.5 L 429.5 238 Z " /><path fill="rgb(243,230,216)" stroke="rgb(243,230,216)" stroke-width="1" opacity="1" d="M 408.5 244 L 409 247.5 L 408 247.5 L 408.5 244 Z " /><path fill="rgb(243,230,216)" stroke="rgb(243,230,216)" stroke-width="1" opacity="1" d="M 301.5 245 L 303.5 248 L 301.5 245 Z " /><path fill="rgb(243,230,216)" stroke="rgb(243,230,216)" stroke-width="1" opacity="1" d="M 369.5 247 L 370 264.5 L 369 264.5 L 369.5 247 Z " /><path fill="rgb(243,230,216)" stroke="rgb(243,230,216)" stroke-width="1" opacity="1" d="M 277 251 L 279 251.5 L 278 252.5 L 277.5 263 L 277 251 Z " /><path fill="rgb(243,230,216)" stroke="rgb(243,230,216)" stroke-width="1" opacity="1" d="M 432.5 251 L 433.5 253 L 432.5 251 Z " /><path fill="rgb(243,230,216)" stroke="rgb(243,230,216)" stroke-width="1" opacity="1" d="M 440.5 251 L 443 251.5 L 440.5 252 L 440.5 251 Z " /><path fill="rgb(243,230,216)" stroke="rgb(243,230,216)" stroke-width="1" opacity="1" d="M 307.5 252 L 309.5 255 L 307.5 252 Z " /><path fill="rgb(243,230,216)" stroke="rgb(243,230,216)" stroke-width="1" opacity="1" d="M 445.5 252 L 446 253.5 L 444 254.5 L 445.5 252 Z " /><path fill="rgb(243,230,216)" stroke="rgb(243,230,216)" stroke-width="1" opacity="1" d="M 284.5 262 L 285.5 264 L 284.5 262 Z " /><path fill="rgb(243,230,216)" stroke="rgb(243,230,216)" stroke-width="1" opacity="1" d="M 415.5 263 L 419.5 268 L 415.5 263 Z " /><path fill="rgb(243,230,216)" stroke="rgb(243,230,216)" stroke-width="1" opacity="1" d="M 286.5 265 L 287.5 267 L 286.5 265 Z " /><path fill="rgb(243,230,216)" stroke="rgb(243,230,216)" stroke-width="1" opacity="1" d="M 460.5 265 L 457.5 269 L 460.5 265 Z " /><path fill="rgb(243,230,216)" stroke="rgb(243,230,216)" stroke-width="1" opacity="1" d="M 381.5 267 L 382.5 269 L 381.5 267 Z " /><path fill="rgb(243,230,216)" stroke="rgb(243,230,216)" stroke-width="1" opacity="1" d="M 338.5 268 L 337.5 270 L 338.5 268 Z " /><path fill="rgb(243,230,216)" stroke="rgb(243,230,216)" stroke-width="1" opacity="1" d="M 309.5 269 L 307.5 272 L 309.5 269 Z " /><path fill="rgb(243,230,216)" stroke="rgb(243,230,216)" stroke-width="1" opacity="1" d="M 367.5 269 L 364.5 273 L 367.5 269 Z " /><path fill="rgb(243,230,216)" stroke="rgb(243,230,216)" stroke-width="1" opacity="1" d="M 274.5 270 L 273.5 272 L 274.5 270 Z " /><path fill="rgb(243,230,216)" stroke="rgb(243,230,216)" stroke-width="1" opacity="1" d="M 256.5 293 L 257.5 295 L 256.5 293 Z " /><path fill="rgb(243,230,216)" stroke="rgb(243,230,216)" stroke-width="1" opacity="1" d="M 463.5 293 L 462.5 295 L 463.5 293 Z " /><path fill="rgb(243,230,216)" stroke="rgb(243,230,216)" stroke-width="1" opacity="1" d="M 258.5 296 L 263.5 302 L 258.5 296 Z " /><path fill="rgb(243,230,216)" stroke="rgb(243,230,216)" stroke-width="1" opacity="1" d="M 461.5 296 L 456.5 302 L 461.5 296 Z " /><path fill="rgb(243,230,216)" stroke="rgb(243,230,216)" stroke-width="1" opacity="1" d="M 266.5 303 L 267.5 305 L 266.5 303 Z " /><path fill="rgb(243,230,216)" stroke="rgb(243,230,216)" stroke-width="1" opacity="1" d="M 453.5 303 L 452.5 305 L 453.5 303 Z " /><path fill="rgb(243,230,216)" stroke="rgb(243,230,216)" stroke-width="1" opacity="1" d="M 294.5 314 L 297 314.5 L 294.5 315 L 294.5 314 Z " /><path fill="rgb(243,230,216)" stroke="rgb(243,230,216)" stroke-width="1" opacity="1" d="M 423.5 314 L 426 314.5 L 423.5 315 L 423.5 314 Z " /><path fill="rgb(243,230,216)" stroke="rgb(243,230,216)" stroke-width="1" opacity="1" d="M 300.5 315 L 303 315.5 L 300.5 316 L 300.5 315 Z " /><path fill="rgb(243,230,216)" stroke="rgb(243,230,216)" stroke-width="1" opacity="1" d="M 417.5 315 L 420 315.5 L 417.5 316 L 417.5 315 Z " /><path fill="rgb(243,230,216)" stroke="rgb(243,230,216)" stroke-width="1" opacity="1" d="M 306.5 316 L 310 316.5 L 306.5 317 L 306.5 316 Z " /><path fill="rgb(243,230,216)" stroke="rgb(243,230,216)" stroke-width="1" opacity="1" d="M 410.5 316 L 414 316.5 L 410.5 317 L 410.5 316 Z " /><path fill="rgb(243,230,216)" stroke="rgb(243,230,216)" stroke-width="1" opacity="1" d="M 316.5 317 L 322 317.5 L 316.5 318 L 316.5 317 Z " /><path fill="rgb(243,230,216)" stroke="rgb(243,230,216)" stroke-width="1" opacity="1" d="M 399.5 317 L 404 317.5 L 399.5 318 L 399.5 317 Z " /><path fill="rgb(243,230,216)" stroke="rgb(243,230,216)" stroke-width="1" opacity="1" d="M 330.5 318 L 343 318.5 L 330.5 319 L 330.5 318 Z " /><path fill="rgb(243,230,216)" stroke="rgb(243,230,216)" stroke-width="1" opacity="1" d="M 377.5 318 L 391 318.5 L 377.5 319 L 377.5 318 Z " /><path fill="rgb(241,183,153)" stroke="rgb(241,183,153)" stroke-width="1" opacity="1" d="M 352.5 85 L 368 85.5 L 352.5 86 L 352.5 85 Z " /><path fill="rgb(241,183,153)" stroke="rgb(241,183,153)" stroke-width="1" opacity="1" d="M 339.5 86 L 347 86.5 L 339.5 87 L 339.5 86 Z " /><path fill="rgb(241,183,153)" stroke="rgb(241,183,153)" stroke-width="1" opacity="1" d="M 373.5 86 L 381 86.5 L 373.5 87 L 373.5 86 Z " /><path fill="rgb(241,183,153)" stroke="rgb(241,183,153)" stroke-width="1" opacity="1" d="M 332.5 87 L 337 87.5 L 332.5 88 L 332.5 87 Z " /><path fill="rgb(241,183,153)" stroke="rgb(241,183,153)" stroke-width="1" opacity="1" d="M 383.5 87 L 388 87.5 L 383.5 88 L 383.5 87 Z " /><path fill="rgb(241,183,153)" stroke="rgb(241,183,153)" stroke-width="1" opacity="1" d="M 326.5 88 L 330 88.5 L 326.5 89 L 326.5 88 Z " /><path fill="rgb(241,183,153)" stroke="rgb(241,183,153)" stroke-width="1" opacity="1" d="M 390.5 88 L 394 88.5 L 390.5 89 L 390.5 88 Z " /><path fill="rgb(241,183,153)" stroke="rgb(241,183,153)" stroke-width="1" opacity="1" d="M 321.5 89 L 325 89.5 L 321.5 90 L 321.5 89 Z " /><path fill="rgb(241,183,153)" stroke="rgb(241,183,153)" stroke-width="1" opacity="1" d="M 395.5 89 L 399 89.5 L 395.5 90 L 395.5 89 Z " /><path fill="rgb(241,183,153)" stroke="rgb(241,183,153)" stroke-width="1" opacity="1" d="M 317.5 90 L 320 90.5 L 317.5 91 L 317.5 90 Z " /><path fill="rgb(241,183,153)" stroke="rgb(241,183,153)" stroke-width="1" opacity="1" d="M 400.5 90 L 403 90.5 L 400.5 91 L 400.5 90 Z " /><path fill="rgb(241,183,153)" stroke="rgb(241,183,153)" stroke-width="1" opacity="1" d="M 313.5 91 L 316 91.5 L 310.5 93 L 310.5 92 L 313.5 91 Z " /><path fill="rgb(241,183,153)" stroke="rgb(241,183,153)" stroke-width="1" opacity="1" d="M 407.5 92 L 415 94.5 L 413.5 95 L 407.5 93 L 407.5 92 Z " /><path fill="rgb(241,183,153)" stroke="rgb(241,183,153)" stroke-width="1" opacity="1" d="M 304.5 94 L 306 94.5 L 302.5 96 L 302.5 95 L 304.5 94 Z " /><path fill="rgb(241,183,153)" stroke="rgb(241,183,153)" stroke-width="1" opacity="1" d="M 299.5 96 L 301 96.5 L 295.5 99 L 295.5 98 L 299.5 96 Z " /><path fill="rgb(241,183,153)" stroke="rgb(241,183,153)" stroke-width="1" opacity="1" d="M 421.5 97 L 432 102.5 L 430.5 102 L 421.5 98 L 421.5 97 Z " /><path fill="rgb(241,183,153)" stroke="rgb(241,183,153)" stroke-width="1" opacity="1" d="M 289.5 101 L 288.5 103 L 286.5 104 L 287.5 102 L 289.5 101 Z " /><path fill="rgb(241,183,153)" stroke="rgb(241,183,153)" stroke-width="1" opacity="1" d="M 433.5 103 L 437 105.5 L 435.5 105 L 433.5 103 Z " /><path fill="rgb(241,183,153)" stroke="rgb(241,183,153)" stroke-width="1" opacity="1" d="M 284.5 104 L 283.5 106 L 280.5 108 L 282.5 105 L 284.5 104 Z " /><path fill="rgb(241,183,153)" stroke="rgb(241,183,153)" stroke-width="1" opacity="1" d="M 438.5 106 L 445 111.5 L 441.5 109 L 438.5 106 Z " /><path fill="rgb(241,183,153)" stroke="rgb(241,183,153)" stroke-width="1" opacity="1" d="M 278.5 108 L 276.5 111 L 278.5 108 Z " /><path fill="rgb(241,183,153)" stroke="rgb(241,183,153)" stroke-width="1" opacity="1" d="M 274.5 111 L 265.5 121 L 274.5 111 Z " /><path fill="rgb(241,183,153)" stroke="rgb(241,183,153)" stroke-width="1" opacity="1" d="M 446.5 112 Q 455.4 119.2 461 129.5 L 459 128.5 L 446.5 112 Z " /><path fill="rgb(241,183,153)" stroke="rgb(241,183,153)" stroke-width="1" opacity="1" d="M 264.5 122 L 262.5 125 L 264.5 122 Z " /><path fill="rgb(241,183,153)" stroke="rgb(241,183,153)" stroke-width="1" opacity="1" d="M 261.5 126 L 261 127.5 L 259.5 130 L 260 128.5 L 261.5 126 Z " /><path fill="rgb(241,183,153)" stroke="rgb(241,183,153)" stroke-width="1" opacity="1" d="M 462.5 133 L 464 136.5 L 463 136.5 L 462.5 133 Z " /><path fill="rgb(241,183,153)" stroke="rgb(241,183,153)" stroke-width="1" opacity="1" d="M 255.5 138 L 256 140.5 L 255 140.5 L 255.5 138 Z " /><path fill="rgb(241,183,153)" stroke="rgb(241,183,153)" stroke-width="1" opacity="1" d="M 464.5 138 L 465 140.5 L 464 140.5 L 464.5 138 Z " /><path fill="rgb(241,183,153)" stroke="rgb(241,183,153)" stroke-width="1" opacity="1" d="M 254.5 143 L 255 146.5 L 254 146.5 L 254.5 143 Z " /><path fill="rgb(241,183,153)" stroke="rgb(241,183,153)" stroke-width="1" opacity="1" d="M 465.5 143 L 466 146.5 L 465 146.5 L 465.5 143 Z " /><path fill="rgb(241,183,153)" stroke="rgb(241,183,153)" stroke-width="1" opacity="1" d="M 255.5 148 L 256 150 L 258 150.5 L 256.5 151 L 255.5 148 Z " /><path fill="rgb(241,183,153)" stroke="rgb(241,183,153)" stroke-width="1" opacity="1" d="M 464.5 148 L 465 149.5 L 462.5 151 L 462.5 150 Q 465 150.7 464.5 148 Z " /><path fill="rgb(241,183,153)" stroke="rgb(241,183,153)" stroke-width="1" opacity="1" d="M 260.5 151 L 460 151.5 L 260.5 152 L 260.5 151 Z " /><path fill="rgb(241,183,153)" stroke="rgb(241,183,153)" stroke-width="1" opacity="1" d="M 379.5 158 L 385 158.5 L 379.5 159 L 379.5 158 Z " /><path fill="rgb(241,183,153)" stroke="rgb(241,183,153)" stroke-width="1" opacity="1" d="M 331.5 159 L 333 159.5 L 330.5 161 L 331.5 159 Z " /><path fill="rgb(241,183,153)" stroke="rgb(241,183,153)" stroke-width="1" opacity="1" d="M 346.5 159 L 349 159.5 L 346.5 160 L 346.5 159 Z " /><path fill="rgb(241,183,153)" stroke="rgb(241,183,153)" stroke-width="1" opacity="1" d="M 257.5 160 L 255.5 163 L 257.5 160 Z " /><path fill="rgb(241,183,153)" stroke="rgb(241,183,153)" stroke-width="1" opacity="1" d="M 278.5 160 L 279.5 162 L 278.5 160 Z " /><path fill="rgb(241,183,153)" stroke="rgb(241,183,153)" stroke-width="1" opacity="1" d="M 404.5 160 L 403 162.5 L 402.5 164 L 402 162.5 L 404.5 160 Z " /><path fill="rgb(241,183,153)" stroke="rgb(241,183,153)" stroke-width="1" opacity="1" d="M 427.5 160 L 428.5 162 L 427.5 160 Z " /><path fill="rgb(241,183,153)" stroke="rgb(241,183,153)" stroke-width="1" opacity="1" d="M 370.5 161 L 368.5 164 L 370.5 161 Z " /><path fill="rgb(241,183,153)" stroke="rgb(241,183,153)" stroke-width="1" opacity="1" d="M 354.5 162 L 355.5 164 L 354.5 162 Z " /><path fill="rgb(241,183,153)" stroke="rgb(241,183,153)" stroke-width="1" opacity="1" d="M 433.5 162 L 433 163.5 L 432.5 166 L 432 163.5 L 433.5 162 Z " /><path fill="rgb(241,183,153)" stroke="rgb(241,183,153)" stroke-width="1" opacity="1" d="M 429.5 163 L 430 167.5 L 429 167.5 L 429.5 163 Z " /><path fill="rgb(241,183,153)" stroke="rgb(241,183,153)" stroke-width="1" opacity="1" d="M 254.5 164 L 255 198.5 L 254 198.5 L 254.5 164 Z " /><path fill="rgb(241,183,153)" stroke="rgb(241,183,153)" stroke-width="1" opacity="1" d="M 289.5 164 L 290 191.5 L 289 191.5 L 289.5 164 Z " /><path fill="rgb(241,183,153)" stroke="rgb(241,183,153)" stroke-width="1" opacity="1" d="M 327.5 164 L 328 198.5 L 327 198.5 L 327.5 164 Z " /><path fill="rgb(241,183,153)" stroke="rgb(241,183,153)" stroke-width="1" opacity="1" d="M 303.5 165 L 304 189.5 L 303 189.5 L 303.5 165 Z " /><path fill="rgb(241,183,153)" stroke="rgb(241,183,153)" stroke-width="1" opacity="1" d="M 309.5 165 L 310 189.5 L 309 189.5 L 309.5 165 Z " /><path fill="rgb(241,183,153)" stroke="rgb(241,183,153)" stroke-width="1" opacity="1" d="M 323.5 165 L 324 191.5 L 323 191.5 L 323.5 165 Z " /><path fill="rgb(241,183,153)" stroke="rgb(241,183,153)" stroke-width="1" opacity="1" d="M 366.5 165 L 364.5 168 L 366.5 165 Z " /><path fill="rgb(241,183,153)" stroke="rgb(241,183,153)" stroke-width="1" opacity="1" d="M 461.5 165 L 462.5 167 L 461.5 165 Z " /><path fill="rgb(241,183,153)" stroke="rgb(241,183,153)" stroke-width="1" opacity="1" d="M 397.5 166 L 398 168.5 L 397 168.5 L 397.5 166 Z " /><path fill="rgb(241,183,153)" stroke="rgb(241,183,153)" stroke-width="1" opacity="1" d="M 401.5 166 L 402 196.5 L 401 196.5 L 401.5 166 Z " /><path fill="rgb(241,183,153)" stroke="rgb(241,183,153)" stroke-width="1" opacity="1" d="M 284.5 167 L 285 169.5 L 284 169.5 L 284.5 167 Z " /><path fill="rgb(241,183,153)" stroke="rgb(241,183,153)" stroke-width="1" opacity="1" d="M 267.5 169 Q 272.3 168.3 273 171.5 L 272.5 175 L 270.5 170 Q 266.5 170.8 267.5 169 Z " /><path fill="rgb(241,183,153)" stroke="rgb(241,183,153)" stroke-width="1" opacity="1" d="M 428.5 169 L 427.5 171 L 428.5 169 Z " /><path fill="rgb(241,183,153)" stroke="rgb(241,183,153)" stroke-width="1" opacity="1" d="M 341.5 170 L 344 170.5 L 341 171 L 340.5 178 L 340 171.5 L 341.5 170 Z " /><path fill="rgb(241,183,153)" stroke="rgb(241,183,153)" stroke-width="1" opacity="1" d="M 446.5 170 L 448 170.5 L 446 171 L 445.5 178 L 445 171.5 L 446.5 170 Z " /><path fill="rgb(241,183,153)" stroke="rgb(241,183,153)" stroke-width="1" opacity="1" d="M 463.5 174 L 464 176.5 L 463 176.5 L 463.5 174 Z " /><path fill="rgb(241,183,153)" stroke="rgb(241,183,153)" stroke-width="1" opacity="1" d="M 358.5 175 L 359 177.5 L 358 177.5 L 358.5 175 Z " /><path fill="rgb(241,183,153)" stroke="rgb(241,183,153)" stroke-width="1" opacity="1" d="M 376.5 175 L 376 176.5 L 375.5 178 L 375 176.5 L 376.5 175 Z " /><path fill="rgb(241,183,153)" stroke="rgb(241,183,153)" stroke-width="1" opacity="1" d="M 415.5 175 L 421 175.5 L 415.5 176 L 415.5 175 Z " /><path fill="rgb(241,183,153)" stroke="rgb(241,183,153)" stroke-width="1" opacity="1" d="M 345.5 176 L 344.5 178 L 345.5 176 Z " /><path fill="rgb(241,183,153)" stroke="rgb(241,183,153)" stroke-width="1" opacity="1" d="M 384.5 176 L 389 176.5 L 384.5 177 L 384.5 176 Z " /><path fill="rgb(241,183,153)" stroke="rgb(241,183,153)" stroke-width="1" opacity="1" d="M 424.5 176 L 426.5 179 L 424.5 176 Z " /><path fill="rgb(241,183,153)" stroke="rgb(241,183,153)" stroke-width="1" opacity="1" d="M 450.5 176 L 449.5 178 L 450.5 176 Z " /><path fill="rgb(241,183,153)" stroke="rgb(241,183,153)" stroke-width="1" opacity="1" d="M 283.5 177 L 282.5 179 L 283.5 177 Z " /><path fill="rgb(241,183,153)" stroke="rgb(241,183,153)" stroke-width="1" opacity="1" d="M 282.5 180 L 284.5 183 L 282.5 180 Z " /><path fill="rgb(241,183,153)" stroke="rgb(241,183,153)" stroke-width="1" opacity="1" d="M 374.5 180 L 375 182.5 L 374 182.5 L 374.5 180 Z " /><path fill="rgb(241,183,153)" stroke="rgb(241,183,153)" stroke-width="1" opacity="1" d="M 396.5 180 L 397.5 182 L 396.5 180 Z " /><path fill="rgb(241,183,153)" stroke="rgb(241,183,153)" stroke-width="1" opacity="1" d="M 356.5 181 L 354.5 184 L 356.5 181 Z " /><path fill="rgb(241,183,153)" stroke="rgb(241,183,153)" stroke-width="1" opacity="1" d="M 461.5 181 L 459.5 184 L 461.5 181 Z " /><path fill="rgb(241,183,153)" stroke="rgb(241,183,153)" stroke-width="1" opacity="1" d="M 426.5 184 L 425.5 186 L 426.5 184 Z " /><path fill="rgb(241,183,153)" stroke="rgb(241,183,153)" stroke-width="1" opacity="1" d="M 267.5 185 L 271 185.5 L 267.5 186 L 267.5 185 Z " /><path fill="rgb(241,183,153)" stroke="rgb(241,183,153)" stroke-width="1" opacity="1" d="M 286.5 186 L 287 189.5 L 286 189.5 L 286.5 186 Z " /><path fill="rgb(241,183,153)" stroke="rgb(241,183,153)" stroke-width="1" opacity="1" d="M 361.5 186 L 362 188.5 L 361 188.5 L 361.5 186 Z " /><path fill="rgb(241,183,153)" stroke="rgb(241,183,153)" stroke-width="1" opacity="1" d="M 266.5 187 L 267 191.5 L 266 191.5 L 266.5 187 Z " /><path fill="rgb(241,183,153)" stroke="rgb(241,183,153)" stroke-width="1" opacity="1" d="M 380.5 187 L 383 188.5 L 381.5 189 L 380.5 187 Z " /><path fill="rgb(241,183,153)" stroke="rgb(241,183,153)" stroke-width="1" opacity="1" d="M 273.5 188 L 274 190.5 L 273 190.5 L 273.5 188 Z " /><path fill="rgb(241,183,153)" stroke="rgb(241,183,153)" stroke-width="1" opacity="1" d="M 376.5 188 L 378.5 191 L 376.5 188 Z " /><path fill="rgb(241,183,153)" stroke="rgb(241,183,153)" stroke-width="1" opacity="1" d="M 460.5 188 L 461.5 190 L 460.5 188 Z " /><path fill="rgb(241,183,153)" stroke="rgb(241,183,153)" stroke-width="1" opacity="1" d="M 356.5 189 L 357.5 191 L 356.5 189 Z " /><path fill="rgb(241,183,153)" stroke="rgb(241,183,153)" stroke-width="1" opacity="1" d="M 385.5 189 L 386 190.5 Q 385 193 380.5 192 L 380.5 191 Q 385.9 192.7 385.5 189 Z " /><path fill="rgb(241,183,153)" stroke="rgb(241,183,153)" stroke-width="1" opacity="1" d="M 398.5 190 L 399 192.5 L 398 192.5 L 398.5 190 Z " /><path fill="rgb(241,183,153)" stroke="rgb(241,183,153)" stroke-width="1" opacity="1" d="M 286.5 191 L 287 193.5 L 286 193.5 L 286.5 191 Z " /><path fill="rgb(241,183,153)" stroke="rgb(241,183,153)" stroke-width="1" opacity="1" d="M 305.5 191 L 308 191.5 L 305.5 192 L 305.5 191 Z " /><path fill="rgb(241,183,153)" stroke="rgb(241,183,153)" stroke-width="1" opacity="1" d="M 358.5 192 L 359.5 194 L 358.5 192 Z " /><path fill="rgb(241,183,153)" stroke="rgb(241,183,153)" stroke-width="1" opacity="1" d="M 427.5 192 L 428.5 194 L 427.5 192 Z " /><path fill="rgb(241,183,153)" stroke="rgb(241,183,153)" stroke-width="1" opacity="1" d="M 463.5 192 L 464.5 194 L 463.5 192 Z " /><path fill="rgb(241,183,153)" stroke="rgb(241,183,153)" stroke-width="1" opacity="1" d="M 285.5 195 L 286 196.5 L 284 197.5 L 285.5 195 Z " /><path fill="rgb(241,183,153)" stroke="rgb(241,183,153)" stroke-width="1" opacity="1" d="M 360.5 195 L 361 199.5 L 360 199.5 L 360.5 195 Z " /><path fill="rgb(241,183,153)" stroke="rgb(241,183,153)" stroke-width="1" opacity="1" d="M 364.5 195 L 366.5 198 L 364.5 195 Z " /><path fill="rgb(241,183,153)" stroke="rgb(241,183,153)" stroke-width="1" opacity="1" d="M 429.5 195 L 430 199.5 L 429 199.5 L 429.5 195 Z " /><path fill="rgb(241,183,153)" stroke="rgb(241,183,153)" stroke-width="1" opacity="1" d="M 465.5 196 L 466 199.5 L 465 199.5 L 465.5 196 Z " /><path fill="rgb(241,183,153)" stroke="rgb(241,183,153)" stroke-width="1" opacity="1" d="M 432.5 197 L 433 199.5 L 432 199.5 L 432.5 197 Z " /><path fill="rgb(241,183,153)" stroke="rgb(241,183,153)" stroke-width="1" opacity="1" d="M 292.5 198 L 294.5 201 L 292.5 198 Z " /><path fill="rgb(241,183,153)" stroke="rgb(241,183,153)" stroke-width="1" opacity="1" d="M 320.5 198 L 318.5 201 L 320.5 198 Z " /><path fill="rgb(241,183,153)" stroke="rgb(241,183,153)" stroke-width="1" opacity="1" d="M 395.5 198 L 393.5 201 L 395.5 198 Z " /><path fill="rgb(241,183,153)" stroke="rgb(241,183,153)" stroke-width="1" opacity="1" d="M 340.5 199 L 341 200.5 L 337 203.5 L 340.5 199 Z " /><path fill="rgb(241,183,153)" stroke="rgb(241,183,153)" stroke-width="1" opacity="1" d="M 346.5 199 L 352 203.5 L 350.5 204 L 346.5 199 Z " /><path fill="rgb(241,183,153)" stroke="rgb(241,183,153)" stroke-width="1" opacity="1" d="M 368.5 199 L 369.5 201 L 368.5 199 Z " /><path fill="rgb(241,183,153)" stroke="rgb(241,183,153)" stroke-width="1" opacity="1" d="M 402.5 199 L 405 202.5 L 402 200.5 L 402.5 199 Z " /><path fill="rgb(241,183,153)" stroke="rgb(241,183,153)" stroke-width="1" opacity="1" d="M 451.5 199 L 455.5 204 L 451.5 199 Z " /><path fill="rgb(241,183,153)" stroke="rgb(241,183,153)" stroke-width="1" opacity="1" d="M 255.5 200 L 257.5 203 L 255.5 200 Z " /><path fill="rgb(241,183,153)" stroke="rgb(241,183,153)" stroke-width="1" opacity="1" d="M 316.5 201 L 315.5 203 L 314 202.5 L 316.5 201 Z " /><path fill="rgb(241,183,153)" stroke="rgb(241,183,153)" stroke-width="1" opacity="1" d="M 328.5 201 L 329.5 203 L 328.5 201 Z " /><path fill="rgb(241,183,153)" stroke="rgb(241,183,153)" stroke-width="1" opacity="1" d="M 359.5 201 L 358.5 203 L 359.5 201 Z " /><path fill="rgb(241,183,153)" stroke="rgb(241,183,153)" stroke-width="1" opacity="1" d="M 371.5 201 L 374 202.5 L 372.5 203 L 371.5 201 Z " /><path fill="rgb(241,183,153)" stroke="rgb(241,183,153)" stroke-width="1" opacity="1" d="M 391.5 201 L 390.5 203 L 389 202.5 L 391.5 201 Z " /><path fill="rgb(241,183,153)" stroke="rgb(241,183,153)" stroke-width="1" opacity="1" d="M 428.5 201 L 427.5 203 L 428.5 201 Z " /><path fill="rgb(241,183,153)" stroke="rgb(241,183,153)" stroke-width="1" opacity="1" d="M 433.5 201 L 437 203.5 L 435.5 204 L 433.5 201 Z " /><path fill="rgb(241,183,153)" stroke="rgb(241,183,153)" stroke-width="1" opacity="1" d="M 444.5 201 L 442.5 204 L 444.5 201 Z " /><path fill="rgb(241,183,153)" stroke="rgb(241,183,153)" stroke-width="1" opacity="1" d="M 464.5 201 L 463.5 203 L 464.5 201 Z " /><path fill="rgb(241,183,153)" stroke="rgb(241,183,153)" stroke-width="1" opacity="1" d="M 274.5 203 L 277 203.5 L 274.5 204 L 274.5 203 Z " /><path fill="rgb(241,183,153)" stroke="rgb(241,183,153)" stroke-width="1" opacity="1" d="M 380.5 204 L 383 204.5 L 380.5 205 L 380.5 204 Z " /><path fill="rgb(241,183,153)" stroke="rgb(241,183,153)" stroke-width="1" opacity="1" d="M 396.5 208 L 399 209.5 L 397.5 209 L 396.5 208 Z " /><path fill="rgb(241,183,153)" stroke="rgb(241,183,153)" stroke-width="1" opacity="1" d="M 431.5 208 L 434 208.5 L 431.5 209 L 431.5 208 Z " /><path fill="rgb(241,183,153)" stroke="rgb(241,183,153)" stroke-width="1" opacity="1" d="M 259.5 209 L 256.5 213 L 259.5 209 Z " /><path fill="rgb(241,183,153)" stroke="rgb(241,183,153)" stroke-width="1" opacity="1" d="M 292.5 209 L 289.5 213 L 292.5 209 Z " /><path fill="rgb(241,183,153)" stroke="rgb(241,183,153)" stroke-width="1" opacity="1" d="M 304.5 209 L 305.5 211 L 304.5 209 Z " /><path fill="rgb(241,183,153)" stroke="rgb(241,183,153)" stroke-width="1" opacity="1" d="M 321.5 209 L 318.5 213 L 321.5 209 Z " /><path fill="rgb(241,183,153)" stroke="rgb(241,183,153)" stroke-width="1" opacity="1" d="M 334.5 209 L 337.5 213 L 334.5 209 Z " /><path fill="rgb(241,183,153)" stroke="rgb(241,183,153)" stroke-width="1" opacity="1" d="M 386.5 209 L 383.5 213 L 386.5 209 Z " /><path fill="rgb(241,183,153)" stroke="rgb(241,183,153)" stroke-width="1" opacity="1" d="M 273.5 210 L 274.5 212 L 273.5 210 Z " /><path fill="rgb(241,183,153)" stroke="rgb(241,183,153)" stroke-width="1" opacity="1" d="M 307.5 212 L 308.5 214 L 307.5 212 Z " /><path fill="rgb(241,183,153)" stroke="rgb(241,183,153)" stroke-width="1" opacity="1" d="M 349.5 212 L 349 213.5 L 348.5 215 L 348 213.5 L 349.5 212 Z " /><path fill="rgb(241,183,153)" stroke="rgb(241,183,153)" stroke-width="1" opacity="1" d="M 367.5 212 L 368.5 214 L 367.5 212 Z " /><path fill="rgb(241,183,153)" stroke="rgb(241,183,153)" stroke-width="1" opacity="1" d="M 458.5 212 L 461.5 216 L 458.5 212 Z " /><path fill="rgb(241,183,153)" stroke="rgb(241,183,153)" stroke-width="1" opacity="1" d="M 288.5 214 L 287.5 216 L 288.5 214 Z " /><path fill="rgb(241,183,153)" stroke="rgb(241,183,153)" stroke-width="1" opacity="1" d="M 419.5 214 L 415.5 219 L 419.5 214 Z " /><path fill="rgb(241,183,153)" stroke="rgb(241,183,153)" stroke-width="1" opacity="1" d="M 309.5 215 L 310 217.5 L 309 217.5 L 309.5 215 Z " /><path fill="rgb(241,183,153)" stroke="rgb(241,183,153)" stroke-width="1" opacity="1" d="M 369.5 215 L 372 218.5 L 370 217.5 L 369.5 215 Z " /><path fill="rgb(241,183,153)" stroke="rgb(241,183,153)" stroke-width="1" opacity="1" d="M 339.5 216 L 340 218.5 L 339 218.5 L 339.5 216 Z " /><path fill="rgb(241,183,153)" stroke="rgb(241,183,153)" stroke-width="1" opacity="1" d="M 347.5 216 L 348 265.5 L 347 265.5 L 347.5 216 Z " /><path fill="rgb(241,183,153)" stroke="rgb(241,183,153)" stroke-width="1" opacity="1" d="M 403.5 216 L 404 264.5 L 403 264.5 L 403.5 216 Z " /><path fill="rgb(241,183,153)" stroke="rgb(241,183,153)" stroke-width="1" opacity="1" d="M 286.5 217 L 285.5 219 L 286.5 217 Z " /><path fill="rgb(241,183,153)" stroke="rgb(241,183,153)" stroke-width="1" opacity="1" d="M 254.5 218 L 255 263.5 L 254 263.5 L 254.5 218 Z " /><path fill="rgb(241,183,153)" stroke="rgb(241,183,153)" stroke-width="1" opacity="1" d="M 309.5 219 L 310 221.5 L 309 221.5 L 309.5 219 Z " /><path fill="rgb(241,183,153)" stroke="rgb(241,183,153)" stroke-width="1" opacity="1" d="M 284.5 220 L 283.5 222 L 284.5 220 Z " /><path fill="rgb(241,183,153)" stroke="rgb(241,183,153)" stroke-width="1" opacity="1" d="M 414.5 220 L 413.5 222 L 414.5 220 Z " /><path fill="rgb(241,183,153)" stroke="rgb(241,183,153)" stroke-width="1" opacity="1" d="M 282.5 223 L 281.5 225 L 282.5 223 Z " /><path fill="rgb(241,183,153)" stroke="rgb(241,183,153)" stroke-width="1" opacity="1" d="M 462.5 223 L 463 224.5 L 461 225.5 L 462.5 223 Z " /><path fill="rgb(241,183,153)" stroke="rgb(241,183,153)" stroke-width="1" opacity="1" d="M 439.5 226 L 444 226.5 L 439.5 227 L 439.5 226 Z " /><path fill="rgb(241,183,153)" stroke="rgb(241,183,153)" stroke-width="1" opacity="1" d="M 306.5 227 L 305.5 229 L 306.5 227 Z " /><path fill="rgb(241,183,153)" stroke="rgb(241,183,153)" stroke-width="1" opacity="1" d="M 434.5 228 L 431.5 232 L 434.5 228 Z " /><path fill="rgb(241,183,153)" stroke="rgb(241,183,153)" stroke-width="1" opacity="1" d="M 302.5 232 L 296.5 239 L 302.5 232 Z " /><path fill="rgb(241,183,153)" stroke="rgb(241,183,153)" stroke-width="1" opacity="1" d="M 379.5 234 L 382 235.5 L 380.5 236 L 379.5 234 Z " /><path fill="rgb(241,183,153)" stroke="rgb(241,183,153)" stroke-width="1" opacity="1" d="M 436.5 236 L 435.5 238 L 436.5 236 Z " /><path fill="rgb(241,183,153)" stroke="rgb(241,183,153)" stroke-width="1" opacity="1" d="M 460.5 237 L 462.5 240 L 460.5 237 Z " /><path fill="rgb(241,183,153)" stroke="rgb(241,183,153)" stroke-width="1" opacity="1" d="M 408.5 238 L 409 243.5 L 408 243.5 L 408.5 238 Z " /><path fill="rgb(241,183,153)" stroke="rgb(241,183,153)" stroke-width="1" opacity="1" d="M 298.5 242 L 300.5 245 L 298.5 242 Z " /><path fill="rgb(241,183,153)" stroke="rgb(241,183,153)" stroke-width="1" opacity="1" d="M 429.5 244 L 430 246.5 L 429 246.5 L 429.5 244 Z " /><path fill="rgb(241,183,153)" stroke="rgb(241,183,153)" stroke-width="1" opacity="1" d="M 465.5 246 L 466 252.5 L 465 252.5 L 465.5 246 Z " /><path fill="rgb(241,183,153)" stroke="rgb(241,183,153)" stroke-width="1" opacity="1" d="M 302.5 247 L 306.5 252 L 302.5 247 Z " /><path fill="rgb(241,183,153)" stroke="rgb(241,183,153)" stroke-width="1" opacity="1" d="M 371.5 247 L 372.5 249 L 371.5 247 Z " /><path fill="rgb(241,183,153)" stroke="rgb(241,183,153)" stroke-width="1" opacity="1" d="M 435.5 247 L 437.5 250 L 435.5 247 Z " /><path fill="rgb(241,183,153)" stroke="rgb(241,183,153)" stroke-width="1" opacity="1" d="M 409.5 248 L 410 250.5 L 409 250.5 L 409.5 248 Z " /><path fill="rgb(241,183,153)" stroke="rgb(241,183,153)" stroke-width="1" opacity="1" d="M 434.5 253 L 435.5 255 L 434.5 253 Z " /><path fill="rgb(241,183,153)" stroke="rgb(241,183,153)" stroke-width="1" opacity="1" d="M 438.5 255 L 444 255.5 L 438.5 256 L 438.5 255 Z " /><path fill="rgb(241,183,153)" stroke="rgb(241,183,153)" stroke-width="1" opacity="1" d="M 282.5 258 L 283.5 260 L 282.5 258 Z " /><path fill="rgb(241,183,153)" stroke="rgb(241,183,153)" stroke-width="1" opacity="1" d="M 412.5 258 L 413.5 260 L 412.5 258 Z " /><path fill="rgb(241,183,153)" stroke="rgb(241,183,153)" stroke-width="1" opacity="1" d="M 311.5 259 L 312 264.5 L 311 264.5 L 311.5 259 Z " /><path fill="rgb(241,183,153)" stroke="rgb(241,183,153)" stroke-width="1" opacity="1" d="M 414.5 261 L 415.5 263 L 414.5 261 Z " /><path fill="rgb(241,183,153)" stroke="rgb(241,183,153)" stroke-width="1" opacity="1" d="M 316.5 263 L 317 265.5 L 316 265.5 L 316.5 263 Z " /><path fill="rgb(241,183,153)" stroke="rgb(241,183,153)" stroke-width="1" opacity="1" d="M 461.5 263 L 459.5 266 L 461.5 263 Z " /><path fill="rgb(241,183,153)" stroke="rgb(241,183,153)" stroke-width="1" opacity="1" d="M 286.5 264 L 287.5 266 L 286.5 264 Z " /><path fill="rgb(241,183,153)" stroke="rgb(241,183,153)" stroke-width="1" opacity="1" d="M 419.5 266 L 421.5 269 L 419.5 266 Z " /><path fill="rgb(241,183,153)" stroke="rgb(241,183,153)" stroke-width="1" opacity="1" d="M 288.5 267 L 291.5 271 L 288.5 267 Z " /><path fill="rgb(241,183,153)" stroke="rgb(241,183,153)" stroke-width="1" opacity="1" d="M 310.5 267 L 309.5 269 L 310.5 267 Z " /><path fill="rgb(241,183,153)" stroke="rgb(241,183,153)" stroke-width="1" opacity="1" d="M 457.5 267 L 455.5 270 L 457.5 267 Z " /><path fill="rgb(241,183,153)" stroke="rgb(241,183,153)" stroke-width="1" opacity="1" d="M 275.5 268 L 274.5 270 L 275.5 268 Z " /><path fill="rgb(241,183,153)" stroke="rgb(241,183,153)" stroke-width="1" opacity="1" d="M 318.5 269 L 320.5 272 L 318.5 269 Z " /><path fill="rgb(241,183,153)" stroke="rgb(241,183,153)" stroke-width="1" opacity="1" d="M 349.5 269 L 352.5 273 L 349.5 269 Z " /><path fill="rgb(241,183,153)" stroke="rgb(241,183,153)" stroke-width="1" opacity="1" d="M 383.5 269 L 385.5 272 L 383.5 269 Z " /><path fill="rgb(241,183,153)" stroke="rgb(241,183,153)" stroke-width="1" opacity="1" d="M 401.5 269 L 399.5 272 L 401.5 269 Z " /><path fill="rgb(241,183,153)" stroke="rgb(241,183,153)" stroke-width="1" opacity="1" d="M 257.5 270 L 258.5 272 L 257.5 270 Z " /><path fill="rgb(241,183,153)" stroke="rgb(241,183,153)" stroke-width="1" opacity="1" d="M 336.5 270 L 335.5 272 L 336.5 270 Z " /><path fill="rgb(241,183,153)" stroke="rgb(241,183,153)" stroke-width="1" opacity="1" d="M 272.5 271 L 271.5 273 L 272.5 271 Z " /><path fill="rgb(241,183,153)" stroke="rgb(241,183,153)" stroke-width="1" opacity="1" d="M 306.5 271 L 305.5 273 L 306.5 271 Z " /><path fill="rgb(241,183,153)" stroke="rgb(241,183,153)" stroke-width="1" opacity="1" d="M 262.5 273 L 265 273.5 L 262.5 274 L 262.5 273 Z " /><path fill="rgb(241,183,153)" stroke="rgb(241,183,153)" stroke-width="1" opacity="1" d="M 267.5 273 L 270 273.5 L 267.5 274 L 267.5 273 Z " /><path fill="rgb(241,183,153)" stroke="rgb(241,183,153)" stroke-width="1" opacity="1" d="M 324.5 273 L 327 273.5 L 324.5 274 L 324.5 273 Z " /><path fill="rgb(241,183,153)" stroke="rgb(241,183,153)" stroke-width="1" opacity="1" d="M 329.5 273 L 332 273.5 L 329.5 274 L 329.5 273 Z " /><path fill="rgb(241,183,153)" stroke="rgb(241,183,153)" stroke-width="1" opacity="1" d="M 359.5 273 L 362 273.5 L 359.5 274 L 359.5 273 Z " /><path fill="rgb(241,183,153)" stroke="rgb(241,183,153)" stroke-width="1" opacity="1" d="M 434.5 273 L 445 273.5 L 434.5 274 L 434.5 273 Z " /><path fill="rgb(241,183,153)" stroke="rgb(241,183,153)" stroke-width="1" opacity="1" d="M 258.5 280 L 462 280.5 L 258.5 281 L 258.5 280 Z " /><path fill="rgb(241,183,153)" stroke="rgb(241,183,153)" stroke-width="1" opacity="1" d="M 256.5 281 L 255.5 283 L 256.5 281 Z " /><path fill="rgb(241,183,153)" stroke="rgb(241,183,153)" stroke-width="1" opacity="1" d="M 463.5 281 L 464.5 283 L 463.5 281 Z " /><path fill="rgb(241,183,153)" stroke="rgb(241,183,153)" stroke-width="1" opacity="1" d="M 254.5 284 L 255 286.5 L 254 286.5 L 254.5 284 Z " /><path fill="rgb(241,183,153)" stroke="rgb(241,183,153)" stroke-width="1" opacity="1" d="M 465.5 284 L 466 287.5 L 465 287.5 L 465.5 284 Z " /><path fill="rgb(241,183,153)" stroke="rgb(241,183,153)" stroke-width="1" opacity="1" d="M 255.5 289 L 258 293.5 L 256 292.5 L 255.5 289 Z " /><path fill="rgb(241,183,153)" stroke="rgb(241,183,153)" stroke-width="1" opacity="1" d="M 464.5 289 L 465 290.5 L 462.5 294 L 463 292.5 L 464.5 289 Z " /><path fill="rgb(241,183,153)" stroke="rgb(241,183,153)" stroke-width="1" opacity="1" d="M 258.5 295 L 271 305.5 L 269.5 305 Q 261.5 301.8 258.5 295 Z " /><path fill="rgb(241,183,153)" stroke="rgb(241,183,153)" stroke-width="1" opacity="1" d="M 461.5 295 L 454.5 303 L 449.5 306 L 450.5 304 L 461.5 295 Z " /><path fill="rgb(241,183,153)" stroke="rgb(241,183,153)" stroke-width="1" opacity="1" d="M 276.5 308 L 280 309.5 L 278.5 310 L 276.5 308 Z " /><path fill="rgb(241,183,153)" stroke="rgb(241,183,153)" stroke-width="1" opacity="1" d="M 442.5 308 L 444 308.5 L 440.5 310 L 440.5 309 L 442.5 308 Z " /><path fill="rgb(241,183,153)" stroke="rgb(241,183,153)" stroke-width="1" opacity="1" d="M 281.5 310 L 287 311.5 L 284.5 312 L 281.5 311 L 281.5 310 Z " /><path fill="rgb(241,183,153)" stroke="rgb(241,183,153)" stroke-width="1" opacity="1" d="M 433.5 311 L 436 311.5 L 433.5 312 L 433.5 311 Z " /><path fill="rgb(241,183,153)" stroke="rgb(241,183,153)" stroke-width="1" opacity="1" d="M 288.5 312 L 291 312.5 L 288.5 313 L 288.5 312 Z " /><path fill="rgb(241,183,153)" stroke="rgb(241,183,153)" stroke-width="1" opacity="1" d="M 429.5 312 L 432 312.5 L 429.5 313 L 429.5 312 Z " /><path fill="rgb(241,183,153)" stroke="rgb(241,183,153)" stroke-width="1" opacity="1" d="M 292.5 313 L 295 313.5 L 292.5 314 L 292.5 313 Z " /><path fill="rgb(241,183,153)" stroke="rgb(241,183,153)" stroke-width="1" opacity="1" d="M 425.5 313 L 428 313.5 L 425.5 314 L 425.5 313 Z " /><path fill="rgb(241,183,153)" stroke="rgb(241,183,153)" stroke-width="1" opacity="1" d="M 297.5 314 L 301 314.5 L 297.5 315 L 297.5 314 Z " /><path fill="rgb(241,183,153)" stroke="rgb(241,183,153)" stroke-width="1" opacity="1" d="M 419.5 314 L 423 314.5 L 419.5 315 L 419.5 314 Z " /><path fill="rgb(241,183,153)" stroke="rgb(241,183,153)" stroke-width="1" opacity="1" d="M 303.5 315 L 308 315.5 L 303.5 316 L 303.5 315 Z " /><path fill="rgb(241,183,153)" stroke="rgb(241,183,153)" stroke-width="1" opacity="1" d="M 412.5 315 L 417 315.5 L 412.5 316 L 412.5 315 Z " /><path fill="rgb(241,183,153)" stroke="rgb(241,183,153)" stroke-width="1" opacity="1" d="M 310.5 316 L 318 316.5 L 310.5 317 L 310.5 316 Z " /><path fill="rgb(241,183,153)" stroke="rgb(241,183,153)" stroke-width="1" opacity="1" d="M 402.5 316 L 410 316.5 L 402.5 317 L 402.5 316 Z " /><path fill="rgb(241,183,153)" stroke="rgb(241,183,153)" stroke-width="1" opacity="1" d="M 322.5 317 L 335 317.5 L 322.5 318 L 322.5 317 Z " /><path fill="rgb(241,183,153)" stroke="rgb(241,183,153)" stroke-width="1" opacity="1" d="M 385.5 317 L 399 317.5 L 385.5 318 L 385.5 317 Z " /><path fill="rgb(241,183,153)" stroke="rgb(241,183,153)" stroke-width="1" opacity="1" d="M 343.5 318 L 377 318.5 L 343.5 319 L 343.5 318 Z " /><path fill="rgb(235,86,28)" stroke="rgb(235,86,28)" stroke-width="1" opacity="1" d="M 347.5 86 L 372.5 86 L 373.5 87 L 382.5 87 L 403.5 91 Q 435 99.5 454 120.5 L 462 132.5 L 465 141.5 L 465 147.5 L 464 150 L 461.5 151 L 258.5 151 L 256 150 Q 254.3 147.6 255 141.5 Q 260.7 121.7 275.5 111 Q 288.7 100.2 306.5 94 L 330.5 88 L 346.5 87 L 347.5 86 Z " /><path fill="rgb(235,86,28)" stroke="rgb(235,86,28)" stroke-width="1" opacity="1" d="M 260.5 159 Q 276.9 156.6 283 164.5 L 285 172.5 L 282 180.5 L 285 183.5 L 287 190.5 L 284 198.5 L 281.5 201 Q 274.6 205.6 261.5 204 L 255 199.5 L 255 163.5 L 258.5 160 L 260.5 159 Z M 267 169 L 267 174 L 267 176 Q 266 178 271 177 Q 274 176 273 172 Q 272 168 267 169 Z M 267 185 L 266 188 Q 265 193 269 194 L 274 191 L 273 186 L 267 185 Z " /><path fill="rgb(235,86,28)" stroke="rgb(235,86,28)" stroke-width="1" opacity="1" d="M 294.5 159 Q 300.3 158.2 302 161.5 L 303 163.5 L 303 189.5 L 305.5 192 Q 309.5 192.5 310 189.5 L 310 163.5 L 312.5 160 L 318.5 159 L 322 161.5 L 323 163.5 L 323 193.5 L 317.5 201 Q 312.7 205.2 302.5 204 Q 295.1 202.9 292 197.5 L 290 193.5 L 290 163.5 L 292.5 160 L 294.5 159 Z " /><path fill="rgb(235,86,28)" stroke="rgb(235,86,28)" stroke-width="1" opacity="1" d="M 333.5 159 Q 350.7 156.8 357 165.5 Q 359.6 168.4 359 174.5 L 357 180.5 L 354 183.5 L 354 186.5 L 360 194.5 L 360 200.5 Q 358.7 204.7 352.5 204 L 346 198.5 L 343 188 L 341 188.5 L 341 198.5 L 336.5 204 Q 329.6 204.9 328 200.5 L 328 163.5 L 329 161 L 333.5 159 Z M 342 170 L 340 172 L 340 178 L 345 178 L 347 175 L 346 171 L 342 170 Z " /><path fill="rgb(235,86,28)" stroke="rgb(235,86,28)" stroke-width="1" opacity="1" d="M 377.5 159 Q 390.7 157.3 396 163.5 L 397 169.5 L 394.5 173 L 389.5 174 Q 386.9 170.6 379.5 172 Q 373.9 174.4 374 182.5 L 376 188.5 L 378.5 191 L 384.5 192 L 386 189 L 379 187 L 378 181.5 L 380.5 178 Q 384 175.5 391.5 177 L 396 179 L 399 185.5 L 399 189.5 Q 397.8 197.3 392.5 201 Q 387.7 205.2 377.5 204 L 367 199 L 362 189.5 L 361 177.5 Q 362.6 168.9 367 164 L 377.5 159 Z " /><path fill="rgb(235,86,28)" stroke="rgb(235,86,28)" stroke-width="1" opacity="1" d="M 408.5 159 L 423.5 159 L 429 162.5 Q 430.5 169.5 426.5 171 L 415 172 L 415 176 L 423.5 176 Q 428 177 427 183.5 Q 424 188.8 415 187 L 415 191 L 424.5 191 L 429 194.5 Q 430.5 201.5 426.5 203 L 423.5 204 L 408.5 204 L 403 200.5 L 402 198.5 L 402 164.5 L 405.5 160 L 408.5 159 Z " /><path fill="rgb(235,86,28)" stroke="rgb(235,86,28)" stroke-width="1" opacity="1" d="M 438.5 159 Q 454.6 156.9 461 164.5 Q 464 167.5 464 173.5 L 463 178.5 L 459 183.5 L 459 186.5 L 465 194.5 L 465 200.5 Q 463.4 204.9 456.5 204 Q 448.7 199.1 448 188 L 446 188.5 L 446 198.5 L 441.5 204 Q 434.6 204.9 433 200.5 L 432 196.5 L 432 166.5 L 435.5 160 L 438.5 159 Z M 447 170 L 445 172 L 445 178 L 450 178 Q 452 177 451 173 L 447 170 Z " /><path fill="rgb(235,86,28)" stroke="rgb(235,86,28)" stroke-width="1" opacity="1" d="M 262.5 208 Q 272.2 206.9 275 212.5 Q 278.6 218.1 277 228 L 283 223.5 Q 286.7 214.7 293.5 209 L 301.5 208 L 307 211 L 310 218.5 Q 306.2 231.7 296 238.5 Q 301.1 247.9 309 254.5 Q 312.3 258.2 311 266.5 L 307.5 271 L 299.5 274 Q 291.4 272.6 288 266.5 L 278.5 251 L 277 251.5 L 277 264.5 L 274 271 L 265.5 274 L 259.5 272 L 257 269.5 L 255 265.5 L 255 215.5 L 260.5 209 L 262.5 208 Z " /><path fill="rgb(235,86,28)" stroke="rgb(235,86,28)" stroke-width="1" opacity="1" d="M 324.5 208 Q 335.6 206.4 338 213.5 L 340 219.5 L 340 262.5 Q 339.1 269.1 334.5 272 L 327.5 274 Q 320.9 273.1 318 268.5 L 316 262.5 L 316 218.5 Q 317.5 212 322.5 209 L 324.5 208 Z " /><path fill="rgb(235,86,28)" stroke="rgb(235,86,28)" stroke-width="1" opacity="1" d="M 355.5 208 Q 364.2 206.8 367 211.5 L 380.5 236 L 382 235.5 L 382 216.5 L 387.5 209 L 395.5 208 L 402 212.5 L 403 214.5 L 403 266.5 L 398.5 272 L 391.5 274 Q 385 272.5 382 267.5 L 373 248.5 L 370.5 246 L 369 246.5 L 369 264.5 L 364.5 272 L 357.5 274 L 353.5 273 L 349 268.5 L 348 266.5 L 348 215.5 L 351.5 210 L 355.5 208 Z " /><path fill="rgb(235,86,28)" stroke="rgb(235,86,28)" stroke-width="1" opacity="1" d="M 434.5 208 Q 454.3 206.2 462 216.5 L 463 222.5 L 459.5 228 L 452.5 230 L 443.5 226 L 439.5 226 Q 433.8 227.3 431 231.5 Q 427.6 236.6 429 246.5 L 435.5 255 L 443.5 256 L 446 255 L 444.5 251 Q 436.6 251.9 435 246.5 L 434 241.5 L 438.5 235 Q 443.6 232.6 452.5 234 Q 459.9 235.1 463 240.5 Q 466.8 245.2 465 255.5 L 459 267 L 447.5 273 L 431.5 273 Q 421.9 270.1 416 263.5 L 410 252.5 L 409 233.5 Q 411.9 219.9 421.5 213 L 434.5 208 Z " /><path fill="rgb(235,86,28)" stroke="rgb(235,86,28)" stroke-width="1" opacity="1" d="M 257.5 281 L 462.5 281 L 465 283.5 Q 463.9 296.9 454.5 302 L 436.5 311 L 411.5 316 L 385.5 317 L 384.5 318 L 335.5 318 L 334.5 317 L 318.5 317 L 317.5 316 L 301.5 315 L 280.5 310 Q 266.4 305.1 258 294.5 L 255 288.5 L 255 283.5 L 257.5 281 Z " /><path fill="rgb(245,235,220)" stroke="rgb(245,235,220)" stroke-width="1" opacity="1" d="M 346.5 74 Q 425.9 71.1 462 111.5 Q 472.8 122.7 477 140.5 L 477 289.5 Q 473.1 303.6 462.5 311 L 451.5 318 L 441.5 322 L 419.5 327 L 402.5 328 L 401.5 329 L 386.5 329 L 385.5 330 L 334.5 330 L 333.5 329 L 308.5 328 L 285.5 324 L 261.5 314 L 249 302.5 L 243 289.5 L 243 140.5 Q 249.1 116.1 266.5 103 Q 279.5 92 296.5 85 L 323.5 77 L 335.5 76 L 336.5 75 L 345.5 75 L 346.5 74 Z M 345 85 L 344 86 L 336 86 L 335 87 L 324 88 L 301 95 Q 284 102 272 113 Q 259 123 254 141 Q 252 150 258 152 L 463 152 L 466 149 Q 467 140 464 135 L 460 127 L 452 116 L 432 101 L 405 90 L 376 85 L 345 85 Z M 262 158 L 257 160 L 254 164 L 254 200 L 255 202 L 259 204 L 278 204 L 282 202 L 287 195 Q 289 184 283 181 L 285 176 Q 287 168 284 165 Q 278 156 262 158 Z M 296 158 L 293 159 L 289 164 L 289 193 L 291 198 Q 295 204 304 205 L 310 205 L 318 202 Q 322 199 324 193 L 324 164 L 323 162 L 318 158 L 313 159 L 309 164 L 309 190 L 306 191 L 304 190 L 304 164 L 303 162 Q 301 158 296 158 Z M 335 158 L 330 160 L 327 164 L 327 201 L 333 205 L 339 204 Q 344 200 343 190 L 344 197 L 348 203 L 353 205 Q 359 205 361 201 L 361 195 L 355 187 L 355 184 L 359 179 L 360 174 L 358 166 L 350 159 L 335 158 Z M 378 158 L 369 162 L 362 171 L 360 180 Q 360 191 365 198 Q 370 203 378 205 Q 388 206 393 202 L 397 198 L 400 189 L 398 181 L 391 176 Q 384 175 381 177 L 377 182 L 378 187 L 382 189 Q 386 188 385 191 L 379 190 L 375 184 L 376 177 L 383 172 L 391 175 L 395 174 L 398 170 L 397 164 Q 391 157 378 158 Z M 409 158 L 406 159 L 401 165 L 401 199 L 402 201 L 406 204 L 427 204 Q 432 203 430 195 L 424 190 L 417 190 L 416 188 L 425 187 L 428 183 L 427 177 L 423 175 Q 415 177 416 173 L 427 172 Q 432 171 430 163 L 424 158 L 409 158 Z M 440 158 L 435 160 L 432 164 L 432 201 L 438 205 L 445 203 Q 448 199 448 190 Q 448 197 452 202 L 458 205 Q 464 205 466 201 L 466 196 L 459 185 L 464 178 Q 466 169 462 165 L 455 159 L 440 158 Z M 264 207 L 257 210 L 254 217 L 254 266 L 256 270 L 262 274 Q 270 276 274 272 Q 279 265 279 252 L 286 266 L 297 274 Q 304 275 308 272 L 312 266 Q 313 258 310 255 L 297 240 Q 305 233 310 223 Q 312 214 308 212 L 301 207 L 294 208 L 279 227 Q 279 218 276 213 L 269 207 L 264 207 Z M 326 207 L 321 209 L 316 216 L 315 221 L 315 262 L 317 269 L 324 274 Q 331 276 335 273 L 340 266 L 340 216 L 337 210 L 331 207 L 326 207 Z M 356 207 L 352 209 L 347 216 L 347 267 L 350 272 L 355 274 Q 361 275 365 273 Q 369 270 370 265 L 371 246 L 381 268 L 389 274 Q 395 275 399 273 L 404 267 L 404 216 L 403 213 L 396 207 L 388 208 Q 383 211 381 218 L 381 235 L 369 213 L 362 207 L 356 207 Z M 436 207 L 422 212 Q 411 219 408 235 L 408 248 Q 410 257 415 264 Q 421 271 433 274 L 447 274 L 458 269 Q 464 264 466 255 Q 467 245 464 241 Q 460 234 452 233 Q 442 232 438 235 Q 432 237 434 247 Q 437 252 445 252 L 444 255 L 436 254 L 430 247 Q 428 236 432 232 L 440 227 L 445 227 L 454 231 L 460 229 L 464 223 Q 464 216 461 213 Q 453 206 436 207 Z M 258 280 L 255 281 L 254 284 L 254 289 L 258 297 L 268 305 L 287 313 L 307 317 L 330 318 L 331 319 L 391 319 L 392 318 L 414 317 L 421 315 L 426 315 L 443 310 L 457 302 Q 463 297 466 289 Q 467 283 465 281 L 463 280 L 258 280 Z " /><path fill="rgb(245,235,220)" stroke="rgb(245,235,220)" stroke-width="1" opacity="1" d="M 267 170 Q 270.8 169 272 171.5 Q 272.8 175.3 270.5 176 L 267 176 L 267 170 Z " /><path fill="rgb(245,235,220)" stroke="rgb(245,235,220)" stroke-width="1" opacity="1" d="M 341 171 Q 344.8 170.3 346 173.5 L 344.5 177 L 341 177 L 341 171 Z " /><path fill="rgb(245,235,220)" stroke="rgb(245,235,220)" stroke-width="1" opacity="1" d="M 446 171 Q 449.8 170.3 451 173.5 L 450 177 L 446 177 L 446 171 Z " /><path fill="rgb(245,235,220)" stroke="rgb(245,235,220)" stroke-width="1" opacity="1" d="M 267 186 L 272 186 L 272 187.5 L 273 190.5 Q 272.5 193.5 268.5 193 Q 265.5 191.4 267 186 Z " /><path fill="rgb(228,228,228)" stroke="rgb(228,228,228)" stroke-width="1" opacity="1" d="M 263.5 354 L 269 354 L 269 356.5 L 272.5 368 L 276 354 L 281.5 354 L 282 355.5 L 276 374 L 269 374 L 269 371.5 L 263.5 354 Z " /><path fill="rgb(228,228,228)" stroke="rgb(228,228,228)" stroke-width="1" opacity="1" d="M 285.5 354 L 297 354 L 297 358 L 290 358 L 290 362 L 297 362 L 297 364.5 Q 295.4 367.5 290 366 L 290 370 L 298 370 L 298 374 L 284 374 L 284 355.5 L 285.5 354 Z " /><path fill="rgb(228,228,228)" stroke="rgb(228,228,228)" stroke-width="1" opacity="1" d="M 300 354 L 314.5 354 L 315 358 L 310 358 L 310 373.5 L 305 374 L 305 358.5 L 300 358 L 300 354 Z " /><path fill="rgb(228,228,228)" stroke="rgb(228,228,228)" stroke-width="1" opacity="1" d="M 322.5 354 Q 332.6 352.4 335 358.5 L 336 365.5 L 331.5 373 L 322.5 374 L 317 369.5 L 316 362.5 L 320.5 355 L 322.5 354 Z M 327 357 L 322 361 Q 320 368 325 370 Q 329 371 330 368 Q 332 359 327 357 Z " /><path fill="rgb(228,228,228)" stroke="rgb(228,228,228)" stroke-width="1" opacity="1" d="M 339 354 L 350.5 354 L 354 357.5 Q 355 363.5 351 364.5 L 355 373.5 L 349 374 Q 349.7 368.7 346.5 366 L 344 366 L 344 374 L 339 374 L 339 354 Z M 346 357 L 344 359 Q 342 364 347 363 L 349 360 L 346 357 Z " /><path fill="rgb(228,228,228)" stroke="rgb(228,228,228)" stroke-width="1" opacity="1" d="M 357 354 L 369.5 354 L 370 358 L 363 358 L 363 362 L 370 362 L 370 364.5 Q 368.4 367.5 363 366 L 363 370 L 371 370 L 371 374 L 357 374 L 357 368.5 L 357 366.5 Q 355.3 360.3 358 358.5 L 357 354 Z " /><path fill="rgb(228,228,228)" stroke="rgb(228,228,228)" stroke-width="1" opacity="1" d="M 377.5 354 L 385.5 354 L 387 355.5 L 386 358 L 379 358 L 379 361 L 387 364 L 388 368.5 L 384.5 373 L 375.5 374 L 373 372.5 L 374 369 L 382 370 L 380.5 366 Q 375.8 365.8 374 362.5 Q 372.8 355.3 377.5 354 Z " /><path fill="rgb(228,228,228)" stroke="rgb(228,228,228)" stroke-width="1" opacity="1" d="M 404.5 354 Q 413.2 352.3 416 356.5 Q 419.6 359.4 418 367.5 L 413.5 373 L 405.5 374 L 399 368.5 Q 397.9 359.6 401 356 L 404.5 354 Z M 407 358 L 404 362 L 405 369 Q 406 371 411 370 L 413 366 L 412 360 Q 411 357 407 358 Z " /><path fill="rgb(228,228,228)" stroke="rgb(228,228,228)" stroke-width="1" opacity="1" d="M 421 354 L 432.5 354 L 436 356.5 L 437 359.5 L 434 365.5 L 437 374 L 432 374 L 432 372.5 L 431 368.5 L 428.5 366 L 426 367.5 L 427 374 L 421.5 374 L 421 373.5 L 421 354 Z M 427 358 L 427 363 L 431 362 Q 433 356 427 358 Z " /><path fill="rgb(228,228,228)" stroke="rgb(228,228,228)" stroke-width="1" opacity="1" d="M 445.5 354 L 455.5 354 L 456 356.5 L 454.5 359 Q 453 356.5 447.5 358 Q 443.3 359.3 444 365.5 L 447.5 370 Q 454.3 372 452 366 Q 447.1 367.6 449 362 L 457 362 L 457 373 Q 453.7 375.1 445.5 374 L 440 369.5 L 439 360.5 L 443.5 355 L 445.5 354 Z " /><path fill="rgb(228,228,228)" stroke="rgb(228,228,228)" stroke-width="1" opacity="1" d="M 392.5 368 L 396 369.5 Q 396.8 373.3 394.5 374 L 391 372.5 Q 390.3 368.8 392.5 368 Z " /><path fill="rgb(236,234,233)" stroke="rgb(236,234,233)" stroke-width="1" opacity="1" d="M 324.5 353 L 328 353.5 L 324.5 354 L 324.5 353 Z " /><path fill="rgb(236,234,233)" stroke="rgb(236,234,233)" stroke-width="1" opacity="1" d="M 379.5 353 L 384 353.5 L 379.5 354 L 379.5 353 Z " /><path fill="rgb(236,234,233)" stroke="rgb(236,234,233)" stroke-width="1" opacity="1" d="M 406.5 353 L 411 353.5 L 406.5 354 L 406.5 353 Z " /><path fill="rgb(236,234,233)" stroke="rgb(236,234,233)" stroke-width="1" opacity="1" d="M 449.5 353 L 452 353.5 L 449.5 354 L 449.5 353 Z " /><path fill="rgb(236,234,233)" stroke="rgb(236,234,233)" stroke-width="1" opacity="1" d="M 297.5 354 L 298 357.5 L 297 357.5 L 297.5 354 Z " /><path fill="rgb(236,234,233)" stroke="rgb(236,234,233)" stroke-width="1" opacity="1" d="M 315.5 354 L 316 357.5 L 315 357.5 L 315.5 354 Z " /><path fill="rgb(236,234,233)" stroke="rgb(236,234,233)" stroke-width="1" opacity="1" d="M 370.5 354 L 371 357.5 L 370 357.5 L 370.5 354 Z " /><path fill="rgb(236,234,233)" stroke="rgb(236,234,233)" stroke-width="1" opacity="1" d="M 332.5 355 L 333.5 357 L 332.5 355 Z " /><path fill="rgb(236,234,233)" stroke="rgb(236,234,233)" stroke-width="1" opacity="1" d="M 352.5 355 L 353.5 357 L 352.5 355 Z " /><path fill="rgb(236,234,233)" stroke="rgb(236,234,233)" stroke-width="1" opacity="1" d="M 375.5 355 L 374.5 357 L 375.5 355 Z " /><path fill="rgb(236,234,233)" stroke="rgb(236,234,233)" stroke-width="1" opacity="1" d="M 373.5 358 L 374 361.5 L 373 361.5 L 373.5 358 Z " /><path fill="rgb(236,234,233)" stroke="rgb(236,234,233)" stroke-width="1" opacity="1" d="M 406.5 358 L 405.5 360 L 406.5 358 Z " /><path fill="rgb(236,234,233)" stroke="rgb(236,234,233)" stroke-width="1" opacity="1" d="M 410.5 358 L 411.5 360 L 410.5 358 Z " /><path fill="rgb(236,234,233)" stroke="rgb(236,234,233)" stroke-width="1" opacity="1" d="M 436.5 360 L 437 361.5 L 435 362.5 L 436.5 360 Z " /><path fill="rgb(236,234,233)" stroke="rgb(236,234,233)" stroke-width="1" opacity="1" d="M 290.5 361 L 297 361.5 L 290.5 362 L 290.5 361 Z " /><path fill="rgb(236,234,233)" stroke="rgb(236,234,233)" stroke-width="1" opacity="1" d="M 363.5 361 L 370 361.5 L 363.5 362 L 363.5 361 Z " /><path fill="rgb(236,234,233)" stroke="rgb(236,234,233)" stroke-width="1" opacity="1" d="M 344.5 362 L 347 362.5 L 344.5 363 L 344.5 362 Z " /><path fill="rgb(236,234,233)" stroke="rgb(236,234,233)" stroke-width="1" opacity="1" d="M 398.5 362 L 399 365.5 L 398 365.5 L 398.5 362 Z " /><path fill="rgb(236,234,233)" stroke="rgb(236,234,233)" stroke-width="1" opacity="1" d="M 412.5 362 L 413 365.5 L 412 365.5 L 412.5 362 Z " /><path fill="rgb(236,234,233)" stroke="rgb(236,234,233)" stroke-width="1" opacity="1" d="M 427.5 362 L 430 362.5 L 427.5 363 L 427.5 362 Z " /><path fill="rgb(236,234,233)" stroke="rgb(236,234,233)" stroke-width="1" opacity="1" d="M 438.5 363 L 439 365.5 L 438 365.5 L 438.5 363 Z " /><path fill="rgb(236,234,233)" stroke="rgb(236,234,233)" stroke-width="1" opacity="1" d="M 344.5 366 L 348 367.5 L 346.5 367 Q 343.5 367.5 344.5 366 Z " /><path fill="rgb(236,234,233)" stroke="rgb(236,234,233)" stroke-width="1" opacity="1" d="M 427.5 366 L 429 366.5 L 426.5 368 L 427.5 366 Z " /><path fill="rgb(236,234,233)" stroke="rgb(236,234,233)" stroke-width="1" opacity="1" d="M 405.5 368 L 406.5 370 L 405.5 368 Z " /><path fill="rgb(236,234,233)" stroke="rgb(236,234,233)" stroke-width="1" opacity="1" d="M 411.5 368 L 410.5 370 L 411.5 368 Z " /><path fill="rgb(236,234,233)" stroke="rgb(236,234,233)" stroke-width="1" opacity="1" d="M 290.5 369 L 298 369.5 L 290.5 370 L 290.5 369 Z " /><path fill="rgb(236,234,233)" stroke="rgb(236,234,233)" stroke-width="1" opacity="1" d="M 363.5 369 L 371 369.5 L 363.5 370 L 363.5 369 Z " /><path fill="rgb(236,234,233)" stroke="rgb(236,234,233)" stroke-width="1" opacity="1" d="M 400.5 370 L 402.5 373 L 400.5 370 Z " /><path fill="rgb(236,234,233)" stroke="rgb(236,234,233)" stroke-width="1" opacity="1" d="M 416.5 370 L 414.5 373 L 416.5 370 Z " /><path fill="rgb(236,234,233)" stroke="rgb(236,234,233)" stroke-width="1" opacity="1" d="M 440.5 370 L 442.5 373 L 440.5 370 Z " /><path fill="rgb(236,234,233)" stroke="rgb(236,234,233)" stroke-width="1" opacity="1" d="M 386.5 371 L 385.5 373 L 386.5 371 Z " /></svg>